<?xml version="1.0" encoding="UTF-8"?>
<!DOCTYPE svg PUBLIC "-//W3C//DTD SVG 1.1//EN" "http://www.w3.org/Graphics/SVG/1.1/DTD/svg11.dtd">
<!-- Creator: CorelDRAW -->
<svg xmlns="http://www.w3.org/2000/svg" xml:space="preserve" width="180px" height="34px" style="shape-rendering:geometricPrecision; text-rendering:geometricPrecision; image-rendering:optimizeQuality; fill-rule:evenodd; clip-rule:evenodd"
viewBox="0 0 79.9072 14.8285"
 xmlns:xlink="http://www.w3.org/1999/xlink">
 <defs>
  <style type="text/css">
   <![CDATA[
    .str0 {stroke:#E77817;stroke-width:0.0317754}
    .fil15 {fill:none;fill-rule:nonzero}
    .fil4 {fill:#000072}
    .fil13 {fill:#4D4D9D}
    .fil2 {fill:#AF6C3E}
    .fil6 {fill:#B065A4}
    .fil8 {fill:#B19DA7}
    .fil3 {fill:#B2B2D4}
    .fil10 {fill:#DD6B2C}
    .fil9 {fill:#E7D3C5}
    .fil11 {fill:#F5D2BF}
    .fil0 {fill:#FA9B27}
    .fil5 {fill:#FC90BA}
    .fil7 {fill:#FDE1BE}
    .fil12 {fill:#FF4A8B}
    .fil1 {fill:white}
    .fil14 {fill:#E77817;fill-rule:nonzero}
   ]]>
  </style>
 </defs>
 <g id="Слой_x0020_1">
  <metadata id="CorelCorpID_0Corel-Layer"/>
  <g id="_174599744">
   <g>
    <path id="_174655312" class="fil0" d="M20.7051 6.94195c0,0.0117018 -8.47343e-006,0.0234079 -0.000737189,0.035474 -0.0190059,0.412775 -0.0834506,0.946309 -0.257224,1.50068 -0.359303,1.14677 -1.1878,2.38431 -3.05291,2.83183 8.47343e-006,-4.23672e-006 -0.936361,0.338471 -0.601182,-1.29056 1.69469e-005,0 1.87536,0.224309 2.30093,-2.02397 0.0570601,-0.301464 0.0881322,-0.647328 0.0848402,-1.04431 -0.00327498,-0.423752 0.339569,-0.768443 0.762956,-0.768443 0.421926,-4.23672e-006 0.763321,0.341767 0.763329,0.759296z"/>
    <path id="_174655216" class="fil1" d="M20.7051 6.94195c0,0.0117018 -8.47343e-006,0.0234079 -0.000737189,0.035474 -0.0190059,0.412775 -0.0834506,0.946309 -0.257224,1.50068 -0.621721,0.152929 -1.05864,-0.123305 -1.35316,-0.482698 0.0570601,-0.301464 0.0881322,-0.647328 0.0848402,-1.04431 -0.00327498,-0.423752 0.339569,-0.768443 0.762956,-0.768443 0.421926,-4.23672e-006 0.763321,0.341767 0.763329,0.759296z"/>
    <path id="_174655120" class="fil2" d="M17.7128 11.0931c-0.110727,-0.0808111 -0.212692,-0.170693 -0.305061,-0.268476 1.33722,-0.478605 2.04189,-1.4105 2.40823,-2.33918 0.0911402,0.023035 0.188034,0.0356859 0.291151,0.0356859 0.0651056,0 0.132745,-0.00504169 0.202884,-0.0157225 -0.337959,1.03165 -1.06647,2.1031 -2.5972,2.58769z"/>
    <path id="_174655024" class="fil3" d="M20.1071 8.52118c-0.103126,0 -0.200032,-0.0126508 -0.29116,-0.0356859 0.0444728,-0.112561 0.083887,-0.225114 0.118844,-0.336721 0.173845,-0.55437 0.238205,-1.0879 0.25722,-1.50067 0.000732952,-0.0120704 0.000732952,-0.0237722 0.000732952,-0.035474 0,-0.0969022 -0.018434,-0.189568 -0.0520015,-0.274916 0.0995374,0.0322499 0.19008,0.0889329 0.26468,0.167041 0.121056,0.126818 0.183276,0.292617 0.175235,0.467119 -0.0200354,0.434717 -0.0887889,0.978338 -0.270675,1.53359 -0.0701261,0.0106723 -0.137791,0.0157225 -0.202875,0.0157225z"/>
    <path id="_174654928" class="fil4" d="M16.8939 10.1493c-0.0907674,0.504792 -0.0547934,0.855918 0.103406,0.994366 0.140053,0.122644 0.353393,0.0502432 0.355439,0.0495865 0.00395286,-0.00138964 0.00863019,-0.00277929 0.0125788,-0.00373255 2.65799,-0.637672 3.15538,-2.91622 3.21528,-4.21761 0.008054,-0.174502 -0.0541961,-0.340302 -0.175235,-0.467119 -0.12206,-0.127847 -0.286694,-0.198198 -0.463463,-0.198198 -0.171714,-8.47343e-006 -0.332913,0.0671392 -0.453884,0.189055 -0.120814,0.121695 -0.186568,0.283038 -0.185255,0.454324 0.00959616,1.21647 -0.29313,2.10829 -0.899569,2.65074 -0.572876,0.512456 -1.24324,0.554586 -1.50931,0.548591zm0.313623 1.31359c-0.113807,0 -0.251966,-0.0275725 -0.371251,-0.130766 -0.247776,-0.214437 -0.303298,-0.664588 -0.164851,-1.33787 0.0129432,-0.0630466 0.0718208,-0.105537 0.135816,-0.0980757 0.00798197,0.000877 0.801349,0.0851283 1.43361,-0.482774 0.549112,-0.49323 0.822999,-1.32135 0.814153,-2.46146 -0.00190229,-0.237845 0.0893693,-0.461857 0.257071,-0.630872 0.167854,-0.169168 0.39157,-0.262337 0.629847,-0.262337 0.245153,-4.23672e-006 0.473411,0.0976351 0.642718,0.274916 0.168295,0.176175 0.254809,0.406856 0.243615,0.649594 -0.0293901,0.638257 -0.166969,1.58091 -0.655445,2.44757 -0.57871,1.02668 -1.50206,1.69902 -2.74421,1.99837 -0.0263227,0.00862595 -0.112629,0.0337115 -0.221076,0.0337115z"/>
    <path id="_174654832" class="fil0" d="M18.4616 14.1923l-13.7543 0c-0.14276,0.0658936 -0.278505,0.124043 -0.407297,0.174947 -0.721627,0.286101 -1.23132,0.350537 -1.57272,0.335179 -0.447914,-0.0197516 -0.83909,-0.331159 -0.926905,-0.770633 -0.105753,-0.530606 0.24992,-1.02346 0.627551,-1.38103 0.368836,-0.349444 0.758211,-0.569728 0.758211,-0.569728 -0.0303518,-0.339208 -0.0138964,-0.672193 0.0259584,-0.97666 0.074312,-0.567542 0.229431,-1.0348 0.31178,-1.25545 0.032915,-0.0878398 0.054124,-0.136473 0.054124,-0.136473 0,0 2.12935,0.0732105 4.14594,-0.266799 0.997141,-0.168287 1.96648,-0.437572 2.63685,-0.866807 0.62861,-0.402543 1.22181,-0.595398 1.74064,-0.670363 1.1538,-0.166172 1.94088,0.251364 1.94088,0.251364 -0.000716005,-0.267896 0.0135321,-0.56278 0.0566788,-0.857372 0.105765,-0.727046 0.385355,-1.4527 1.03927,-1.76594 0.0446169,-0.0212175 0.0911275,-0.0405877 0.139032,-0.0577761 0.350186,-0.126678 0.614417,0.0234036 0.81342,0.340666 0.0907589,0.144146 0.167626,0.323117 0.233524,0.526505 0.13685,0.425942 0.223207,0.958743 0.276234,1.50434 0.0527344,0.540834 0.0732062,1.09448 0.0783284,1.56906 0.00513066,0.459582 0.143417,0.900158 0.388935,1.27235 0.184094,0.279886 0.429239,0.521383 0.723462,0.703274 0.00806247,0.00511372 0.016091,0.00987155 0.0241366,0.0149937 0.759313,0.470915 1.31623,0.876754 1.56248,1.29465 0.414253,0.701812 -0.101368,1.58771 -0.916249,1.58771z"/>
    <path id="_174654736" class="fil1" d="M15.0421 11.981c0,1.65471 -2.33422,1.79557 -6.89506,1.79557 -3.25382,0 -4.23999,-2.69682 -4.56895,-4.16415 0.0329871,-0.0878398 0,0 0,0 0,0 2.12935,0.0732105 4.14594,-0.266799l0.425582 1.27892 -0.0765024 0.158856c0,0 0.526577,0.849258 2.60276,-0.387914 2.07663,-1.23717 4.36622,-0.0688212 4.36623,1.58551z"/>
    <path id="_174654640" class="fil1" d="M4.30005 14.3672c-0.721631,0.286105 -1.23132,0.350542 -1.57272,0.335184 -0.447914,-0.0197516 -0.83909,-0.331159 -0.926905,-0.770633 -0.105753,-0.530606 0.24992,-1.02346 0.627551,-1.38103 0.558768,0.110506 1.35573,0.511223 1.87207,1.81648z"/>
    <path id="_174654544" class="fil1" d="M18.4616 14.1923l-0.719424 0c-0.970009,-1.24851 -0.357138,-2.35249 0.0731935,-2.88236 0.702558,0.435814 1.23169,0.815686 1.50178,1.20096 0.0223105,0.0310763 0.042418,0.062606 0.0607037,0.0936865 0.076138,0.129156 0.120746,0.264168 0.137935,0.398887 0.0768752,0.598618 -0.388943,1.18883 -1.05418,1.18882z"/>
    <path id="_174654448" class="fil5" d="M18.9324 13.096c0.167486,0.091941 0.246691,0.269591 0.176845,0.396773 -0.069766,0.127178 -0.262193,0.155704 -0.429675,0.0637753 -0.167477,-0.0919367 -0.246687,-0.269582 -0.176917,-0.396692 0.0698465,-0.127182 0.262189,-0.15578 0.429747,-0.0638558z"/>
    <path id="_174654352" class="fil5" d="M19.5158 13.0035c-0.0899582,0.0709396 -0.240773,0.0749687 -0.375784,0.00110155 -0.167613,-0.0922248 -0.246615,-0.269726 -0.177137,-0.397057 0.0596826,-0.10832 0.207858,-0.144883 0.354274,-0.0966141 0.0223105,0.0310763 0.042418,0.062606 0.0607037,0.0936865 0.076138,0.129156 0.120746,0.264168 0.137943,0.398883z"/>
    <path id="_174654256" class="fil5" d="M18.4267 11.7279c0,0 -0.104583,0.368683 -0.383965,0.546549 -0.261227,0.166308 0.147586,0.861689 0.716585,0.388719 0.175099,-0.145548 0.222991,-0.401666 0.100414,-0.5935 -0.0720326,-0.112633 -0.203536,-0.231914 -0.433035,-0.341767z"/>
    <path id="_174654160" class="fil1" d="M16.6005 7.75025c-1.15081,0.601182 -2.04775,-0.0639914 -2.50149,-0.547786 0.113069,-0.776488 0.424121,-1.55151 1.1783,-1.82372 0.843111,-0.304472 1.18853,0.992379 1.32319,2.37151z"/>
    <path id="_174654064" class="fil5" d="M15.6927 6.18258c0,0.191097 -0.117607,0.346004 -0.262634,0.346004 -0.145103,0 -0.262706,-0.154899 -0.262706,-0.346004 1.27101e-005,-0.191034 0.117603,-0.345932 0.262706,-0.345932 0.145044,-4.23672e-006 0.26263,0.154903 0.262634,0.345932z"/>
    <path id="_174653968" class="fil5" d="M16.3243 6.24591c-0.0461421,0.0991773 -0.128872,0.165075 -0.223584,0.165075 -0.145319,0 -0.262778,-0.154759 -0.262778,-0.346152 0,-0.186649 0.112337,-0.33884 0.252835,-0.345424 0.0907589,0.144146 0.167626,0.323117 0.233528,0.526501z"/>
    <path id="_174653872" class="fil5" d="M16.4438 7.30288c0,0 -0.338111,-0.106778 -0.617709,0.01865 -0.261448,0.117306 -0.590869,-0.552396 0.0641354,-0.751547 0.201507,-0.0612926 0.423828,0.0319618 0.50969,0.224309 0.0504678,0.112921 0.0756932,0.275285 0.0438839,0.508588z"/>
    <path id="_174602720" class="fil2" d="M4.2531 14.2528c-0.0407403,-0.0957328 -0.0830862,-0.186348 -0.126678,-0.271989 0.0448372,-0.0166757 0.0904708,-0.0342284 0.137058,-0.0526581 0.10613,-0.0419096 0.217068,-0.0888609 0.332625,-0.140934 0.0492264,-0.0221623 0.102537,-0.0340081 0.156437,-0.0340081l2.88215 0c0.164118,0.0154301 0.334959,0.0234036 0.512312,0.0234036 0.847652,0 1.61865,-0.00482562 2.31183,-0.0234036l7.00118 0c0.0530861,0.103778 0.116277,0.208874 0.190728,0.315288l-12.9435 0c-0.0179933,0 -0.0357706,0.0038766 -0.0520777,0.0114095 -0.141375,0.0654573 -0.275285,0.122721 -0.402098,0.172892z"/>
    <path id="_174602624" class="fil3" d="M8.14701 13.7766c-0.177362,0 -0.348207,-0.0079735 -0.512325,-0.0234036l2.82416 0c-0.693186,0.0185738 -1.46419,0.0234036 -2.31183,0.0234036z"/>
    <path id="_174602528" class="fil3" d="M2.8186 14.5805c-0.0302078,0 -0.0588056,-0.000656691 -0.0858655,-0.00182602 -0.401886,-0.017629 -0.735278,-0.293638 -0.8107,-0.671316 -0.00462649,-0.0231155 -0.00824041,-0.0462183 -0.0108926,-0.0692576 0.172333,0.249759 0.461425,0.411169 0.779543,0.425214 0.0304959,0.00138117 0.0623094,0.00211836 0.0955125,0.00211836 0.314635,0 0.752572,-0.066258 1.34022,-0.284644 0.0435958,0.0856367 0.0859375,0.176256 0.126674,0.271989 -0.661589,0.26146 -1.12951,0.327723 -1.43449,0.327723z"/>
    <path id="_174602432" class="fil3" d="M18.4617 14.0685l-0.810933 0c-0.0744603,-0.106414 -0.137651,-0.211505 -0.190745,-0.315288l0.965031 0c0.211738,0 0.4032,-0.0598267 0.563365,-0.160682 0.0429434,-0.0155784 0.0794977,-0.0410284 0.105532,-0.0759135 0.133185,-0.108973 0.237985,-0.24881 0.305785,-0.405026 0.00418164,0.165211 -0.0370077,0.331599 -0.12367,0.483282 -0.169303,0.296566 -0.473779,0.473627 -0.814365,0.473627z"/>
    <path id="_174602336" class="fil6" d="M18.9884 13.5925c0.0368594,-0.0231833 0.0721004,-0.0485612 0.10552,-0.0759135 -0.0260261,0.0348851 -0.0625975,0.0603393 -0.10552,0.0759135z"/>
    <path id="_174602240" class="fil2" d="M16.5974 9.75608c-0.158716,-0.419511 -0.312013,-1.01944 -0.376301,-1.84866 0.0855774,-0.0261871 0.172892,-0.0591657 0.261753,-0.0996094 0.04163,0.447372 0.0659699,0.953329 0.0720411,1.51289 0.00161419,0.147874 0.0160148,0.293418 0.042507,0.435378z"/>
    <path id="_174602144" class="fil3" d="M16.2211 7.90742c-0.00511795,-0.0655251 -0.00966395,-0.132588 -0.0136126,-0.201045 -0.0089776,-0.157614 -0.0211327,-0.306001 -0.0363468,-0.445397 0.117162,0.00343174 0.213484,0.0257423 0.253123,0.0363468 0.0223105,0.160529 0.0418333,0.330722 0.0585811,0.51049 -0.0888439,0.0404395 -0.176184,0.0734265 -0.261753,0.0996094zm0.0911402 -1.23813c-0.0707277,-0.0681561 -0.164715,-0.109333 -0.263596,-0.116789 -0.0148327,-0.0581489 -0.0306442,-0.113802 -0.0473156,-0.167045 0.0306569,0.0164512 0.0642117,0.0255262 0.0993891,0.0255262 0.0482816,0 0.0934662,-0.0171163 0.132232,-0.0470275 0.0281615,0.0947033 0.0546325,0.196664 0.0792774,0.305344zm-0.469598 -0.669643c-0.136549,-0.253195 -0.309446,-0.417524 -0.518472,-0.505949 0.0669952,-0.0237002 0.130186,-0.0355418 0.190157,-0.0355418 0.0901065,-8.47343e-006 0.172892,0.0266955 0.250195,0.0803747 0.0743205,0.0515608 0.14379,0.126597 0.208366,0.224093 -0.0666944,0.0489171 -0.11548,0.135079 -0.130245,0.237023z"/>
    <path id="_174602048" class="fil6" d="M16.1007 6.41099c-0.0351647,0 -0.0687492,-0.00907081 -0.0993891,-0.0255262 -0.0459302,-0.146493 -0.0988087,-0.274696 -0.158707,-0.385795 0.0147861,-0.101957 0.063555,-0.188102 0.130254,-0.237027 0.0986011,0.148967 0.185475,0.350389 0.260075,0.601321 -0.0387617,0.0299112 -0.0839632,0.0470275 -0.132232,0.0470275z"/>
    <path id="_174601952" class="fil6" d="M16.4243 7.29732c-0.0396387,-0.0106045 -0.135973,-0.0329066 -0.253135,-0.0363426 -0.0293223,-0.268269 -0.0702109,-0.50369 -0.122505,-0.708468 0.0988892,0.00745238 0.19286,0.0486333 0.263583,0.116798 0.0428629,0.188902 0.0802307,0.398514 0.112057,0.628013z"/>
    <path id="_174601856" class="fil7" d="M14.6655 8.61348c0,0 -0.689534,-0.529725 -2.03611,-0.529725 -0.216331,-4.23672e-006 -0.449859,0.0136761 -0.700058,0.0454176 0.0449812,-0.0661902 0.0810357,-0.128428 0.109778,-0.184157 0.222411,-0.0372238 0.427773,-0.0514168 0.611854,-0.0514168 0.102846,-4.23672e-006 0.199151,0.00439347 0.287868,0.0117781 0.637609,0.0525776 1.0416,0.261753 1.04541,0.263731 0.0181374,0.009647 0.038105,0.0144811 0.0579964,0.0144811 0.022247,-4.23672e-006 0.0443923,-0.00599919 0.0640676,-0.017845 0.0196753,-0.0118501 0.0352495,-0.0285978 0.0455616,-0.0482011 0.205527,0.121335 0.384334,0.282674 0.513643,0.495937z"/>
    <path id="_174601760" class="fil2" d="M4.14865 11.2704c-0.237692,-0.0491417 -0.45937,-0.108235 -0.664368,-0.17318 0.200248,0.0556535 0.417825,0.106193 0.651789,0.147442 0.00417317,0.00854969 0.00833786,0.0171121 0.0125788,0.0257423zm4.11157 -0.326918c-0.0470318,-0.0265515 -0.0839632,-0.0540478 -0.112197,-0.0785487 0.834417,-0.311272 1.46111,-0.717242 1.89101,-1.06018 0.646599,-0.515761 0.979656,-0.983388 1.05711,-1.09902 0.293791,-0.173256 0.502445,-0.368895 0.649667,-0.550421 0.0622458,-0.00979952 0.12331,-0.0185017 0.183573,-0.0261829 -0.141583,0.208438 -0.37131,0.456371 -0.737943,0.667219 8.47343e-006,0 -0.362243,0.578579 -1.17237,1.19219 -0.445906,0.337738 -1.02727,0.686162 -1.75884,0.954939z"/>
    <path id="_174601664" class="fil3" d="M5.58373 11.4149c-0.528255,0 -1.0076,-0.0560941 -1.43508,-0.144442 -0.00423672,-0.00863443 -0.00840988,-0.0171884 -0.0125788,-0.0257423 0.381991,0.0673553 0.807713,0.110142 1.27315,0.110142 0.356325,-4.23672e-006 0.73604,-0.0250856 1.13705,-0.0833023 0.600444,-0.0871789 1.13383,-0.231986 1.60175,-0.406564 0.0282335,0.0245009 0.0651649,0.0520015 0.112192,0.0785487 -0.456591,0.16777 -0.971687,0.304611 -1.54873,0.388354 -0.397196,0.0577719 -0.773557,0.08301 -1.12775,0.0830057z"/>
    <path id="_174601568" class="fil8" d="M11.7458 8.15534c0.0501754,-0.0619366 0.0932501,-0.1222 0.13011,-0.179395 0.0553739,-0.0117018 0.109778,-0.022014 0.163241,-0.0309365 -0.0287419,0.0557255 -0.0648006,0.117971 -0.109778,0.184157 -0.0602588,0.00768117 -0.121335,0.0163834 -0.183573,0.0261744z"/>
    <path id="_174601472" class="fil4" d="M2.97102 14.738l-0.00965548 -0.0189424 -0.00775319 -0.0164554c-0.00474936,-0.0108968 -0.00921486,-0.0217174 -0.0131677,-0.0323261 -0.007893,-0.0216496 -0.0144811,-0.0430747 -0.0203278,-0.0649404 -0.0108968,-0.0434475 -0.017773,-0.0876195 -0.0216496,-0.13194 -0.0065076,-0.0885728 -0.000512643,-0.178086 0.0209887,-0.263727 0.00929112,-0.0429349 0.0222343,-0.0850563 0.037961,-0.125648l0.0249415 -0.060191c0.00884626,-0.0197516 0.0203278,-0.0384694 0.0303476,-0.0573397 0.0409563,-0.0756254 0.0953685,-0.142612 0.156657,-0.199659 0.00812178,-0.00761338 0.0209167,-0.00716852 0.0285216,0.000949024 0.00432145,0.00467733 0.00607121,0.0108968 0.00519421,0.016752l-0.000292333 0.0020421c-0.00629152,0.0412487 -0.0168918,0.0789173 -0.0231833,0.117607 -0.00606698,0.0386855 -0.0136041,0.0756974 -0.0170401,0.113358 -0.00541029,0.0370077 -0.0070965,0.0741637 -0.00987579,0.110366 -0.00219038,0.0179128 -0.000144048,0.0364908 -0.00109731,0.0543359 -0.000584667,0.0179891 -0.00153369,0.0357621 -0.000220309,0.0536834 0.00197855,0.0713039 0.0088505,0.141006 0.0180654,0.209607 0.00388083,0.0344445 0.00994781,0.0683128 0.0150658,0.102245l0.00870645 0.0500949c0.00116933,0.00848191 0.002631,0.0164596 0.00409267,0.0243569l0.00175824 0.0116255c0.000584667,0.00358426 0.00138964,0.00797774 0.000728715,0.00877848l-0.087395 0.109706c-0.0290342,0.0364951 -0.082205,0.0424943 -0.118776,0.0134558 -0.00957498,-0.00768117 -0.0173324,-0.0174807 -0.0225944,-0.0277929z"/>
    <path id="_174601376" class="fil4" d="M2.10455 14.5812l-0.00967666 -0.0189424 -0.00775319 -0.0165232c-0.0047197,-0.0108248 -0.00919367,-0.0216496 -0.0131592,-0.0322541 -0.00785911,-0.0217216 -0.0144303,-0.0430789 -0.0202684,-0.0649446 -0.0109095,-0.0435195 -0.0177984,-0.0876915 -0.0216623,-0.13194 -0.00656691,-0.0886406 -0.000516879,-0.178082 0.0209633,-0.263799 0.00932501,-0.0428586 0.022247,-0.0850563 0.0379779,-0.125648l0.0249331 -0.060119c0.00885474,-0.0197473 0.020332,-0.0384694 0.0303264,-0.0574075 0.0410029,-0.0755534 0.0953854,-0.142544 0.156653,-0.199664 0.00816415,-0.00760914 0.0209463,-0.00716852 0.0285512,0.00102105 0.00435111,0.00468157 0.00607121,0.010829 0.0052154,0.0166757l-0.00032199 0.00204633c-0.00628729,0.0413249 -0.0168706,0.0789893 -0.0231621,0.117679 -0.00607969,0.0386855 -0.0136041,0.0756932 -0.0170697,0.11329 -0.00541029,0.0370755 -0.00707108,0.0742315 -0.00985036,0.110362 -0.00219886,0.0179891 -0.000199126,0.0365671 -0.00114815,0.0544121 -0.00056772,0.0179891 -0.00153793,0.0356901 -0.000173705,0.0536792 0.00198278,0.0713082 0.00885474,0.140934 0.0180315,0.209612 0.00389354,0.0343682 0.00996052,0.0683043 0.0150658,0.102245l0.00877424 0.0500229c0.00113968,0.00848191 0.00257169,0.0165274 0.00407148,0.0244247l0.00174976 0.0116298c0.00056772,0.00351224 0.00135151,0.00789724 0.000690585,0.00877848l-0.0873399 0.109701c-0.0290893,0.0364908 -0.0822474,0.0424943 -0.118764,0.01346 -0.00965971,-0.00775743 -0.0173536,-0.0174807 -0.0226537,-0.0277971z"/>
    <path id="_174601280" class="fil4" d="M3.30905 11.9658c0.000436382,0.0244204 -7.62609e-005,0.0509041 -0.00161419,0.0767227 -0.00160572,0.0260304 -0.003508,0.0522175 -0.00635931,0.0785445 -0.00511795,0.0527259 -0.0118501,0.105321 -0.0258185,0.160974l-0.000364358 0.00146167c-0.00533826,0.021209 -0.0268396,0.0340124 -0.0479766,0.0287461 -0.00818957,-0.00213107 -0.015142,-0.00658386 -0.02026,-0.0125068 -0.039787,-0.0460828 -0.0661902,-0.0966861 -0.0890812,-0.147298 -0.0116255,-0.0253779 -0.0217937,-0.0510482 -0.0310805,-0.0768667 -0.00928688,-0.0260431 -0.0171884,-0.0514888 -0.0234036,-0.0790614l-0.000220309 -0.00109731c-0.0151378,-0.067135 0.0270599,-0.133838 0.0941991,-0.148976 0.0671392,-0.015142 0.133838,0.0270599 0.148904,0.0941991 0.00190652,0.00818534 0.00285131,0.0170401 0.00307586,0.0251576z"/>
    <path id="_174601184" class="fil4" d="M14.093 7.94655c0.0377449,0.0183577 0.0671392,0.0365713 0.0990248,0.0561746 0.0310212,0.0198109 0.060996,0.0409521 0.0905429,0.0624577 0.0590259,0.0432187 0.114239,0.0915639 0.166456,0.142904 0.0520099,0.0515566 0.0996137,0.10824 0.141519,0.168435 0.0416257,0.0605554 0.0762821,0.126157 0.100999,0.194393 0.00578735,0.0157945 -0.00241493,0.0332074 -0.0181374,0.03891 -0.0113205,0.00416469 -0.0234756,0.00109731 -0.0315932,-0.00673214l-0.00219038 -0.00219038c-0.0246492,-0.0241408 -0.0449812,-0.0498068 -0.0708718,-0.0715285 -0.023107,-0.0234799 -0.0490019,-0.0444643 -0.0742315,-0.0653852 -0.0520692,-0.04052 -0.10466,-0.0790571 -0.160389,-0.113502 -0.055429,-0.0347453 -0.112633,-0.0663343 -0.170189,-0.0966183 -0.0288817,-0.0150658 -0.0581447,-0.0292503 -0.0873992,-0.0427824 -0.0282208,-0.014049 -0.060119,-0.0275725 -0.084836,-0.0383211l-0.00262253 -0.00117357c-0.0627458,-0.0274327 -0.0913563,-0.100486 -0.0640041,-0.163236 0.027437,-0.0627585 0.100563,-0.0913478 0.163313,-0.0639956 0.00139812,0.000652454 0.0032199,0.00153793 0.00460955,0.00219038z"/>
    <path id="_174601088" class="fil4" d="M3.66069 9.73867c-0.105757,0.272726 -0.440868,1.23249 -0.351203,2.23139 0.00431721,0.0484045 -0.0201159,0.0950041 -0.0623856,0.118916 -0.0151378,0.00862595 -1.51441,0.870395 -1.32507,1.81838 0.075422,0.377674 0.408809,0.653691 0.8107,0.671316 0.352372,0.0153581 0.971174,-0.058509 1.92246,-0.498789 0.0163114,-0.00753288 0.0340801,-0.0114095 0.0520735,-0.0114095l13.7544 0c0.340598,0 0.645053,-0.177061 0.814365,-0.473627 0.166969,-0.292401 0.165139,-0.639062 -0.0049739,-0.927438 -0.25436,-0.431213 -0.892994,-0.863735 -1.54515,-1.26694 -0.724118,-0.447596 -1.16191,-1.2251 -1.17105,-2.07977 -0.022658,-2.10091 -0.30337,-3.44412 -0.790385,-3.78216 -0.130025,-0.0902548 -0.275573,-0.104363 -0.445177,-0.0431467 -0.957705,0.345852 -1.15562,1.58515 -1.15306,2.56393 0.000156758,0.0435068 -0.0225986,0.083959 -0.0598987,0.106414 -0.0372153,0.0224504 -0.0836709,0.02384 -0.122064,0.00336395 -0.0037961,-0.00197855 -0.407809,-0.211145 -1.04541,-0.263731 -0.586696,-0.0485655 -1.49871,0.0299155 -2.51135,0.677972 -1.90863,1.22145 -6.09041,1.17178 -6.76684,1.15533zm-0.836747 5.08983c-0.0345928,0 -0.0685331,-0.000732952 -0.102029,-0.00219462 -0.516261,-0.0226749 -0.945114,-0.380601 -1.04293,-0.870391 -0.200765,-1.00533 1.06063,-1.84793 1.37739,-2.04189 -0.0845437,-1.20997 0.387693,-2.30452 0.408241,-2.35147 0.0204083,-0.0465234 0.0680162,-0.0756254 0.117751,-0.0740875 0.0473199,0.00168198 4.74075,0.147294 6.71155,-1.11394 1.07635,-0.688797 2.05052,-0.769095 2.67824,-0.715124 0.431077,0.0370077 0.759592,0.139032 0.948287,0.211806 0.0246535,-1.02398 0.285377,-2.23723 1.31462,-2.60891 0.247056,-0.0893057 0.472822,-0.0648006 0.670731,0.0726258 0.711184,0.493594 0.880267,2.4385 0.896866,3.98313 0.00826583,0.769248 0.402107,1.46887 1.0536,1.87155 0.784975,0.485324 1.3623,0.900891 1.6283,1.35192 0.215903,0.365896 0.218382,0.805667 0.00672791,1.17625 -0.213997,0.37475 -0.598911,0.59847 -1.02961,0.59847l-13.7273 0c-0.740866,0.340229 -1.38286,0.512249 -1.91046,0.512249z"/>
    <path id="_174600992" class="fil0" d="M10.6714 11.3926c-0.0651014,0.770269 -0.309153,1.60783 -1.06333,1.60783 -0.890651,0 -1.08863,-0.807569 -1.11533,-1.39229 -0.0149895,-0.331527 0.0252339,-0.591378 0.0252339,-0.591378 4.23672e-006,-8.47343e-006 0.826291,-0.87317 2.13477,-0.88619 4.23672e-006,0 0.0743035,0.606664 0.0186585,1.26203z"/>
    <path id="_174600896" class="fil1" d="M10.6714 11.3926c-0.0651014,0.770269 -0.309153,1.60783 -1.06333,1.60783 -0.890651,0 -1.08863,-0.807569 -1.11533,-1.39229 0.468369,-0.310687 1.26387,-0.643303 2.17866,-0.215539z"/>
    <path id="_174600800" class="fil2" d="M10.676 10.3954c-0.0109011,-0.163974 -0.0232638,-0.26482 -0.0232638,-0.26482 -0.0794172,0.000728715 -0.157241,0.0047536 -0.233011,0.0114815 0.00732105,-0.113222 0.102101,-0.183496 0.198566,-0.183496 0.057488,-4.23672e-006 0.115552,0.0250093 0.155996,0.0808154 0.0450575,0.0621611 0.0853529,0.140201 0.114095,0.238129 -0.0710116,0.0365671 -0.141955,0.0759177 -0.212607,0.117967l0.000224546 -7.62609e-005z"/>
    <path id="_174600704" class="fil3" d="M9.75351 13.0147c-0.0628178,0 -0.128868,-0.00489764 -0.198346,-0.0151335 0.0173324,0.000652454 0.0350292,0.000949024 0.0529505,0.000949024 0.754178,0 0.99823,-0.837556 1.06332,-1.60782l8.47343e-006 -8.47343e-006c0.0329828,-0.38813 0.0203235,-0.759143 0.00460107,-0.997204 0.0704354,-0.0419816 0.141371,-0.0813238 0.212387,-0.117895 0.0214293,0.0727698 0.0363468,0.156585 0.0421257,0.252979 0.0372238,0.626335 0.0454176,2.48414 -1.17705,2.48414zm-0.884279 -0.302205c-0.0291105,-0.0280089 -0.0554459,-0.0586489 -0.0779725,-0.0920003 0.0240688,0.0321016 0.0500271,0.0628983 0.0779725,0.0920003z"/>
    <path id="_174600608" class="fil2" d="M10.6714 11.3926c-0.114023,-0.0533148 -0.226219,-0.0948516 -0.336065,-0.126008 0.0581447,-0.417825 0.0778158,-0.833824 0.0839548,-1.11518 8.47343e-005,-0.00314788 0.000220309,-0.00629152 0.000440618,-0.00936314 0.0757737,-0.00673638 0.153585,-0.0107485 0.233011,-0.0114815 4.23672e-006,0 0.0123585,0.100855 0.0232596,0.264824 0.0157309,0.238057 0.0283775,0.609079 -0.00460955,0.997213l8.47343e-006 -8.47343e-006z"/>
    <path id="_174600512" class="fil3" d="M9.60811 13.0005c-0.0179213,0 -0.0356181,-0.000292333 -0.0529505,-0.000949024 -0.000364358,-8.04976e-005 -0.000804976,-7.62609e-005 -0.00117357,-0.000148285 4.23672e-006,-8.47343e-006 -0.439547,-0.0508279 -0.684772,-0.28691 -0.0279327,-0.0291147 -0.0538995,-0.0598987 -0.077964,-0.0920088 -0.000355884,-0.000512643 -0.000656691,-0.000949024 -0.000949024,-0.00138964 0,-4.23672e-006 0.177353,0.0477605 0.407733,0.0477605 0.342788,0 0.803108,-0.105609 0.971907,-0.630796 0.0752568,-0.234045 0.128207,-0.502157 0.165435,-0.769396 0.10985,0.0311568 0.222038,0.0726978 0.336056,0.126017l8.47343e-006 -8.47343e-006c-0.0651014,0.770269 -0.309153,1.60783 -1.06333,1.60783z"/>
    <path id="_174600416" class="fil4" d="M8.54019 11.0201c0.0139642,0.249987 0.0302713,0.495869 0.0693974,0.733782 0.0187305,0.118916 0.0426383,0.23579 0.0748924,0.348495 0.0315254,0.112697 0.0732105,0.221161 0.1285,0.319088 0.0550731,0.0978554 0.123966,0.18467 0.206243,0.252835 0.0819889,0.068817 0.177722,0.11709 0.280623,0.149268 0.103202,0.0310763 0.216704,0.0412529 0.327579,0.0413927 0.0541198,-0.000440618 0.10663,-0.00804129 0.157314,-0.0198914 0.0506923,-0.0118501 0.0993934,-0.0294748 0.144955,-0.0534631 0.184971,-0.0920045 0.321728,-0.280183 0.412927,-0.492569 0.0916444,-0.21378 0.147078,-0.450155 0.182912,-0.689674 0.0359189,-0.240179 0.0496585,-0.485257 0.0560984,-0.730918 0.00746509,-0.245454 0.00906657,-0.493599 0.0127271,-0.74065l7.62609e-005 -0.00219886c0.000512643,-0.0326905 0.027348,-0.0587971 0.0600385,-0.0582845 0.0278691,0.000360121 0.0509762,0.0201117 0.0568271,0.0462226 0.111752,0.498191 0.113214,1.00869 0.0553654,1.51838 -0.0321779,0.254508 -0.0825694,0.510999 -0.184526,0.758495 -0.0513363,0.123229 -0.115188,0.244861 -0.201926,0.355511 -0.0854927,0.110438 -0.195639,0.210709 -0.327138,0.276967 -0.130686,0.0677959 -0.27806,0.099173 -0.419363,0.101732 -0.138447,-0.000224546 -0.27587,-0.0130152 -0.41241,-0.0542639 -0.135588,-0.0421341 -0.264244,-0.114387 -0.371386,-0.20873 -0.107583,-0.0942754 -0.192423,-0.209319 -0.256415,-0.330574 -0.127551,-0.243992 -0.182988,-0.508008 -0.194177,-0.766613 -0.00284707,-0.0648006 -0.00255898,-0.129453 0.000512643,-0.193813 0.00256321,-0.06436 0.00716852,-0.128356 0.0155021,-0.191983 0.0155149,-0.12733 0.0399353,-0.252758 0.0806713,-0.375335 0.00395709,-0.0119221 0.0167477,-0.0183577 0.0285978,-0.0144048 0.00906657,0.00306738 0.0149895,0.0112612 0.0155021,0.0201837l8.04976e-005 0.00101681z"/>
    <path id="_174600320" class="fil4" d="M9.23951 12.9472c0.00212259,-0.0217216 0.00753288,-0.0514803 0.0115535,-0.0779556l0.01346 -0.0825016c0.00965124,-0.0552934 0.0174765,-0.111163 0.0253779,-0.167698 0.00409267,-0.0283818 0.00606698,-0.0566788 0.00979952,-0.0854207l0.00322414 -0.0430832c0.00160148,-0.0144811 0.00269879,-0.02903 0.00313941,-0.0435111 0.00460955,-0.0585895 0.00336395,-0.117018 0.00482562,-0.179183l4.23672e-006 -0.00176247c0.000364358,-0.0159343 0.0135999,-0.0285131 0.0296146,-0.0281487 0.00988002,0.000216073 0.018578,0.00555857 0.0235519,0.0132355 0.0348173,0.0538995 0.0642837,0.112777 0.0849843,0.174138 0.0218742,0.0611316 0.0374441,0.124771 0.0470996,0.189055 0.0106045,0.0642795 0.0147734,0.129453 0.0133075,0.194546 -0.00130915,0.032466 -0.00343598,0.0650887 -0.00796926,0.0975631 -0.00489341,0.0332752 -0.00994781,0.0630423 -0.0213573,0.10027 -0.0200354,0.065381 -0.0892973,0.102168 -0.154755,0.0820567 -0.0572592,-0.017557 -0.0925892,-0.0729181 -0.0869586,-0.130402l0.00109731 -0.0111976z"/>
    <path id="_174600224" class="fil4" d="M9.88677 12.8619c0.00212259,-0.0217216 0.00745238,-0.0514846 0.0115493,-0.0779598l0.0134643 -0.0824973c0.009647,-0.0552934 0.017396,-0.111167 0.0252974,-0.167698 0.00417317,-0.0283818 0.00614324,-0.0566068 0.00979952,-0.0854249l0.00329193 -0.0430789c0.00161419,-0.0144811 0.00270302,-0.0290342 0.00314364,-0.0435153 0.00454176,-0.0585853 0.00329193,-0.117018 0.0047536,-0.179183l7.62609e-005 -0.00168198c0.000368594,-0.016019 0.0135999,-0.0285978 0.0295426,-0.0282292 0.00987579,0.000211836 0.018578,0.00555433 0.0236239,0.0132355 0.0348216,0.0539673 0.0642879,0.112777 0.0849123,0.174138 0.021942,0.0612121 0.0374441,0.124771 0.0470996,0.189055 0.0106087,0.0642837 0.0148455,0.129453 0.0133838,0.194546 -0.00130915,0.032466 -0.00351224,0.0650166 -0.00804552,0.0975589 -0.00482138,0.0332752 -0.00994781,0.0630466 -0.021281,0.100275 -0.0200354,0.0653768 -0.0893015,0.102168 -0.154759,0.0820567 -0.0573355,-0.0175527 -0.0926612,-0.0729139 -0.0869586,-0.130402l0.00110578 -0.0111934z"/>
    <path id="_174600128" class="fil0" d="M4.55222 2.37255c-3.19573,1.32267 -3.61555,4.64386 -3.61555,4.64386 -0.480634,-0.943017 -0.728698,-1.90351 -0.845754,-2.76586 -0.1081,-0.798659 -0.104151,-1.51333 -0.0681772,-2.05263 0.04027,-0.60258 0.561153,-1.0623 1.16353,-1.02325 1.14213,0.0737189 1.99019,0.379504 2.54931,0.664004 0.546108,0.276958 0.816635,0.533894 0.81664,0.533881z"/>
    <path id="_174600032" class="fil2" d="M0.695054 6.16407c-0.22619,-0.597157 -0.370255,-1.18926 -0.457184,-1.75021 0.117162,0.0925002 0.260202,0.138736 0.403149,0.138736 0.00882084,-8.47343e-006 0.017612,-0.000216073 0.0264286,-0.000508406 0.05398,0.279742 0.127813,0.568046 0.226732,0.859274 -0.0819127,0.241633 -0.148285,0.492497 -0.19913,0.752716zm2.87744 -3.7938c-0.103783,-0.0586489 -0.224821,-0.120297 -0.363048,-0.180704 0.100126,-0.0719055 0.196664,-0.138227 0.2883,-0.198859 0.0748246,0.0340759 0.145468,0.0682365 0.212094,0.102101 0.078769,0.0399904 0.151759,0.0794977 0.21897,0.117823 -0.120306,0.0487773 -0.239446,0.102096 -0.356316,0.159639z"/>
    <path id="_174599936" class="fil7" d="M3.49774 1.99071c-0.553201,-0.251949 -1.33113,-0.496954 -2.33719,-0.561899 -0.0239205,-0.00154216 -0.0476503,-0.00226664 -0.0712912,-0.00226664 -0.32785,-1.27101e-005 -0.626089,0.147078 -0.828113,0.381622 0.165778,-0.306747 0.489841,-0.511952 0.854317,-0.511952 0.0208574,-1.27101e-005 0.0418545,0.000660928 0.0629237,0.00205057 1.07343,0.0693211 1.88448,0.350173 2.43257,0.61873 -0.0367874,0.0235434 -0.0746001,0.0481249 -0.113214,0.0737146z"/>
    <path id="_174599840" class="fil9" d="M3.92881 2.21063c-0.0672155,-0.0383253 -0.140206,-0.0778073 -0.218975,-0.11781 -0.0666224,-0.0338768 -0.137274,-0.0680162 -0.212094,-0.102101 0.0386177,-0.0256067 0.0764304,-0.0501712 0.113218,-0.0737189 0.174065,0.0852681 0.321651,0.169308 0.44269,0.244929 -0.0417571,0.0157225 -0.0833743,0.0319618 -0.124839,0.0487011z"/>
    <path id="_174599648" class="fil5" d="M3.96055 2.79031c0,0 -0.803184,-0.762219 -2.43831,-0.8679 -0.436526,-0.0281572 -0.813729,0.304904 -0.842929,0.741383 -0.0543359,0.812454 -0.00853698,2.17507 0.662004,3.49063 4.23672e-006,-8.47343e-006 0.304107,-2.40588 2.61924,-3.36412z"/>
    <path id="_174599552" class="fil6" d="M1.03693 5.03632c-0.253661,-0.893867 -0.275692,-1.74027 -0.233973,-2.36427 0.0237129,-0.35435 0.319008,-0.62736 0.667982,-0.62736 0.0143243,-4.23672e-006 0.0288139,0.000440618 0.0433077,0.00138964 0.800133,0.0517091 1.39716,0.266655 1.79071,0.465365 -0.0481969,0.027204 -0.0959574,0.0551451 -0.143421,0.083959 -0.352296,-0.13918 -0.812636,-0.262337 -1.38268,-0.299197 -0.0159639,-0.00103376 -0.0318262,-0.00153793 -0.0476037,-0.00153793 -0.382516,-4.23672e-006 -0.70479,0.299053 -0.730673,0.68609 -0.0311017,0.465056 -0.0265134,1.12542 0.128983,1.84954 -0.0322541,0.0677917 -0.063161,0.136545 -0.0926316,0.206019z"/>
    <path id="_174599456" class="fil4" d="M1.47094 2.04469c-0.348974,0 -0.644269,0.273022 -0.667982,0.627364 -0.052959,0.79213 -0.00314364,1.94286 0.492815,3.09395 0.0649573,-0.249466 0.179738,-0.602126 0.376428,-0.990332 0.324685,-0.64082 0.940085,-1.4941 2.04978,-2.01548 -0.299197,-0.212319 -1.03561,-0.638333 -2.20773,-0.714103 -0.0144896,-0.000965971 -0.0289876,-0.00138964 -0.0433077,-0.00138964zm-0.129703 4.23362c-0.0459641,0 -0.0889287,-0.025666 -0.11035,-0.0676434 -0.667046,-1.3087 -0.735401,-2.65564 -0.675261,-3.55514 0.0337836,-0.504945 0.470746,-0.889482 0.974627,-0.856791 1.66076,0.107367 2.48149,0.869298 2.51564,0.901624 0.0304281,0.0288817 0.0441762,0.0712319 0.0364993,0.112553 -0.00760914,0.0412444 -0.0356943,0.0758457 -0.074456,0.0918605 -0.929044,0.384537 -1.6392,1.04899 -2.11051,1.97475 -0.353795,0.695008 -0.432425,1.28464 -0.43317,1.29049 -0.0069355,0.0539715 -0.0481757,0.0971225 -0.101745,0.106414 -0.00710074,0.00123712 -0.0142481,0.00190229 -0.021281,0.00189381z"/>
    <path id="_174599360" class="fil0" d="M5.92762 2.17289c3.43988,0.359388 4.78675,3.42416 4.78675,3.42416 0.192648,-1.04073 0.15739,-2.03216 0.0244289,-2.89224 -0.123449,-0.796384 -0.33043,-1.48042 -0.518316,-1.98725 -0.209895,-0.566229 -0.840043,-0.858888 -1.40641,-0.650196 -1.07407,0.395375 -1.80017,0.929722 -2.2553,1.36144 -0.444804,0.420812 -0.631161,0.744086 -0.631156,0.744082z"/>
    <path id="_174599264" class="fil2" d="M10.7037 4.71122c-0.122725,-0.234985 -0.257736,-0.45665 -0.404958,-0.665016 0.0119984,-0.307331 0.000877,-0.604762 -0.0269879,-0.888312 0.14715,-0.0373721 0.281208,-0.125131 0.372556,-0.254656 0.07621,0.56256 0.106409,1.17127 0.059386,1.80799zm-3.8373 -2.81918c-0.128792,-0.0219377 -0.257588,-0.0391176 -0.387113,-0.0516964 0.0536114,-0.0558908 0.112337,-0.114459 0.176404,-0.175163 0.0542723,-0.051421 0.112265,-0.104291 0.174358,-0.158191 0.1051,0.0320889 0.216483,0.0681603 0.332913,0.10868 -0.115404,0.0972665 -0.213776,0.190661 -0.296562,0.276369z"/>
    <path id="_174599168" class="fil7" d="M6.83005 1.50698c-0.0447609,-0.0136761 -0.0883567,-0.0266108 -0.130779,-0.0388253 0.448401,-0.41272 1.14575,-0.912004 2.15744,-1.28456 0.109858,-0.0403759 0.222406,-0.0595343 0.333281,-0.0595343 0.259194,-8.47343e-006 0.50888,0.104808 0.691135,0.287643 -0.175667,-0.11293 -0.381991,-0.175307 -0.594085,-0.175307 -0.124979,-4.23672e-006 -0.252025,0.0216496 -0.376064,0.0673595 -0.946088,0.348271 -1.62223,0.804421 -2.08093,1.20322z"/>
    <path id="_174599072" class="fil9" d="M6.47928 1.84034c-0.0446846,-0.00431298 -0.0898099,-0.00810907 -0.134571,-0.011257 0.0943559,-0.107011 0.211806,-0.229571 0.354562,-0.360926 0.0424265,0.0122017 0.0860096,0.0251619 0.13077,0.038838 -0.0620891,0.0538953 -0.12009,0.106778 -0.174358,0.158191 -0.0640634,0.0606867 -0.122797,0.119285 -0.176404,0.175154z"/>
    <path id="_174598976" class="fil5" d="M6.61363 2.40516c0,0 0.553345,-0.959163 2.09095,-1.52531 0.410445,-0.151187 0.866811,0.060924 1.01893,0.471068 0.283114,0.763456 0.626627,2.08284 0.357778,3.53474 4.23672e-006,0 -0.975635,-2.22012 -3.46767,-2.4805z"/>
    <path id="_174598880" class="fil6" d="M10.0553 3.72726c-0.0480486,-0.058221 -0.097203,-0.115332 -0.147446,-0.17121 -0.0568228,-0.738455 -0.240179,-1.37291 -0.402175,-1.8099 -0.109706,-0.295774 -0.390769,-0.480067 -0.689161,-0.480067 -0.0836624,-1.27101e-005 -0.168651,0.0144811 -0.251661,0.0450532 -0.536012,0.197393 -0.942284,0.446423 -1.24053,0.679946 -0.0540436,-0.014193 -0.108244,-0.0275005 -0.162584,-0.0400073 0.319978,-0.301836 0.830901,-0.677019 1.58566,-0.954935 0.0757016,-0.0279496 0.153293,-0.0411046 0.229647,-0.0411046 0.27251,-8.47343e-006 0.529869,0.168215 0.630288,0.438962 0.217437,0.586332 0.436988,1.40414 0.447961,2.33326z"/>
    <path id="_174598784" class="fil4" d="M6.83319 2.30834c1.21253,0.184238 2.04525,0.827397 2.53884,1.34959 0.298989,0.316228 0.509321,0.62173 0.642574,0.842454 0.148175,-1.24465 -0.131279,-2.362 -0.407292,-3.10638 -0.128567,-0.346669 -0.514367,-0.525264 -0.859935,-0.397857 -1.10677,0.407585 -1.68915,1.02412 -1.91419,1.3122zm3.24812 2.70128c-0.0487095,0 -0.0934704,-0.0287419 -0.113438,-0.0740875 -0.00233443,-0.0053425 -0.245369,-0.548299 -0.782191,-1.11401 -0.71512,-0.753534 -1.58478,-1.18861 -2.58492,-1.29312 -0.0417613,-0.00438924 -0.0784725,-0.0295469 -0.0974911,-0.0669189 -0.0190864,-0.0373763 -0.0179171,-0.0819127 0.00299959,-0.118264 0.0235561,-0.040736 0.593721,-1.00459 2.15546,-1.57974 0.473559,-0.174438 1.00204,0.0698423 1.17801,0.54435 0.31339,0.845221 0.630872,2.15598 0.363485,3.60034 -0.00994357,0.0535309 -0.0535394,0.0942712 -0.107583,0.100563 -0.00482138,0.00058043 -0.00958345,0.000877 -0.0143328,0.000877z"/>
    <path id="_173928640" class="fil0" d="M11.5453 7.2274c0,0 0.243395,0.176044 0.415118,0.271633 0,0 -0.140786,0.64784 -0.951863,1.1143 0,-4.23672e-006 -0.362171,0.578502 -1.17244,1.19241 -0.724042,0.548371 -1.80587,1.12527 -3.30765,1.34322 -1.50178,0.218013 -2.70296,-0.0274243 -3.55302,-0.347322 -0.951422,-0.358155 -1.46311,-0.809764 -1.46311,-0.809764 -0.910229,-0.216636 -1.22938,-0.797693 -1.22938,-0.797693 0.137397,-0.140498 0.320745,-0.378407 0.320745,-0.378407 -0.29349,-0.242594 -0.471894,-0.662834 -0.471894,-0.662834 0.434882,-0.224088 0.564161,-0.504563 0.564161,-0.504563 -0.0141888,-0.815987 0.0971691,-1.51962 0.293541,-2.12512 0.302023,-0.930158 0.804057,-1.62976 1.358,-2.1529 1.60569,-1.51664 4.00704,-1.86526 5.97762,-0.867684 1.12249,0.568038 2.24593,1.63686 2.79979,3.63179 8.47343e-006,0 0.203684,0.232206 0.684331,0.323333 4.23672e-006,-4.23672e-006 -0.0515566,0.453596 -0.263943,0.769608z"/>
    <path id="_173929072" class="fil1" d="M9.83608 9.80574c-0.724046,0.548375 -1.80588,1.12528 -3.30766,1.34322 -1.50178,0.218013 -2.70296,-0.0274243 -3.55302,-0.347322 0.154394,-1.59781 1.38052,-2.94446 3.04019,-3.18537 1.65968,-0.240912 3.21813,0.70152 3.82049,2.18947z"/>
    <path id="_107885408" class="fil10" d="M3.65572 2.50273c0,0 0.0563102,0.863388 0.520578,1.78892 0.0173366,0.0345928 -0.0193067,0.0712319 -0.0537555,0.0536792 -0.23812,-0.121623 -0.811077,-0.508147 -1.00452,-1.47822 0,0 0.38272,-0.278721 0.537699,-0.364379z"/>
    <path id="_107885792" class="fil10" d="M5.19508 1.96364c0,0 -0.254589,0.0154471 -0.533966,0.134584 8.47343e-006,-8.47343e-006 0.366925,2.09337 0.897159,2.58368 0.018578,0.0171756 0.0485612,0.0128754 0.0615086,-0.00892252 0.368904,-0.620793 0.125428,-2.73207 0.125428,-2.73207 -0.301756,-0.0348131 -0.550129,0.0227427 -0.550129,0.02273z"/>
    <path id="_174005344" class="fil10" d="M6.82412 2.04278c0,0 0.191538,0.843784 0.00957498,1.86316 -0.00679993,0.0380923 0.0387617,0.062822 0.0667749,0.0361307 0.193737,-0.184314 0.633139,-0.717759 0.542817,-1.70276 4.23672e-006,-1.27101e-005 -0.446207,-0.158487 -0.619166,-0.196529z"/>
    <path id="_174005248" class="fil2" d="M2.99003 10.6745c-0.0362027,-0.0137481 -0.0713802,-0.0275641 -0.105613,-0.0413885 -0.830396,-0.334743 -1.28561,-0.730262 -1.29,-0.734138 -0.0152479,-0.01346 -0.0335633,-0.022891 -0.0533191,-0.0276446 -0.653365,-0.155564 -0.984159,-0.51188 -1.10015,-0.664881 0.124742,-0.138888 0.25444,-0.306734 0.260872,-0.315144 0.0408165,-0.0528785 0.0323177,-0.128648 -0.0191796,-0.17121 -0.182903,-0.151179 -0.320114,-0.383893 -0.388422,-0.515685 0.384249,-0.229575 0.508694,-0.492205 0.514231,-0.504127 0.00778708,-0.016968 0.0116806,-0.0353978 0.0113586,-0.0540478 -0.00990121,-0.563221 0.0404013,-1.09192 0.150348,-1.58449 0.0102613,1.07232 0.301231,3.09387 2.17696,3.94159 -0.0734265,0.216259 -0.126377,0.44072 -0.157093,0.671172zm6.79587 -0.986536c-0.0949279,-0.212238 -0.209612,-0.412338 -0.341399,-0.598762 1.55721,-1.34614 1.26138,-3.36689 0.966272,-4.39796 0.245522,0.441076 0.444008,0.93351 0.59467,1.47633 0.00504593,0.0179849 0.0139685,0.0345928 0.0262549,0.0486333 0.00870645,0.00987155 0.202731,0.226283 0.636355,0.337158 -0.0280047,0.145756 -0.0933221,0.407877 -0.225698,0.604834 -0.0372958,0.0554332 -0.023912,0.130474 0.0302798,0.169604 0.00855817,0.00621103 0.180573,0.130254 0.339645,0.227965 -0.0678637,0.179984 -0.283695,0.615438 -0.865637,0.950253 -0.0175527,0.0100876 -0.0323982,0.0244289 -0.043223,0.0415452 -0.00314364,0.00504169 -0.327138,0.513706 -1.02807,1.07071 -0.0288859,0.022963 -0.0587294,0.0462226 -0.0894455,0.0696982z"/>
    <path id="_174005152" class="fil3" d="M5.4093 11.1069c-1.02054,0 -1.84223,-0.212382 -2.41927,-0.432374 0.0307162,-0.23046 0.0836667,-0.454905 0.157093,-0.671172 0.537847,0.243103 1.20602,0.389744 2.03523,0.389744 0.373877,-4.23672e-006 0.780509,-0.0298392 1.22269,-0.0940551 1.42294,-0.206536 2.39155,-0.649811 3.03946,-1.20982 0.131787,0.186424 0.246467,0.386524 0.341395,0.598767 -0.656538,0.501784 -1.73654,1.11488 -3.27532,1.33824l4.23672e-006 -4.23672e-006c-0.388719,0.0564585 -0.7563,0.0806713 -1.10128,0.0806671z"/>
    <path id="_174005056" class="fil7" d="M0.996789 5.94788c0.239413,-0.978122 0.719365,-1.81092 1.43566,-2.48735 0.217577,-0.205519 0.450219,-0.389087 0.694567,-0.550133 0.0119984,0.0559501 0.0253059,0.109926 0.039715,0.161923 -0.273455,0.174709 -0.533161,0.376432 -0.774739,0.60469 -0.553959,0.523065 -1.056,1.22269 -1.35802,2.15284 -0.0126212,0.0388973 -0.0250348,0.0782521 -0.0371814,0.118039zm9.19415 -1.61895c-0.540923,-0.717975 -1.18613,-1.19825 -1.82132,-1.51968 -0.296638,-0.150145 -0.602783,-0.269722 -0.914711,-0.35946 -0.000944788,-0.0539758 -0.00358426,-0.109489 -0.00796926,-0.166533 0.280115,0.0849758 0.555319,0.194834 0.822338,0.329917 0.789067,0.39931 1.43127,0.973441 1.92165,1.71577zm-6.44965 -1.28179c-0.0427103,-0.196956 -0.0649489,-0.352804 -0.0759177,-0.446419 0.326702,-0.162372 0.668609,-0.288664 1.019,-0.377894 0.0187305,0.0966141 0.0482731,0.243323 0.0875475,0.418634 -0.135524,0.0977792 -0.320118,0.195054 -0.531555,0.273963 -0.177866,0.0664063 -0.349881,0.110511 -0.499081,0.13172zm3.12811 -0.729973c-0.287059,-0.0478368 -0.576681,-0.0715963 -0.86557,-0.0715963 -0.0763499,-4.23672e-006 -0.152632,0.00168198 -0.228842,0.0049739 -0.00606274,-0.0723462 -0.0118501,-0.134423 -0.0166037,-0.183645 0.0668511,-0.00257592 0.133838,-0.0038766 0.200905,-0.0038766 0.294884,-1.27101e-005 0.590649,0.0253059 0.883487,0.0764261 0.00782521,0.0451168 0.0172561,0.105024 0.0266235,0.177718z"/>
    <path id="_174004960" class="fil11" d="M3.16673 3.07232c-0.0144091,-0.0519972 -0.0277208,-0.105973 -0.039715,-0.161923 0.173921,-0.114679 0.353613,-0.217869 0.538355,-0.309657 0.0109731,0.0936102 0.0332031,0.249471 0.0759135,0.446423 -0.068745,0.00972326 -0.132669,0.0146294 -0.19008,0.0146294 -0.0825694,-4.23672e-006 -0.151755,-0.0100961 -0.202659,-0.0306442 -0.0182814,-0.00732105 -0.0375924,-0.0110451 -0.056755,-0.0110451 -0.0269116,-1.27101e-005 -0.0535351,0.00724055 -0.0770108,0.0218699 -0.0160148,0.0100071 -0.0321058,0.0201117 -0.0480486,0.0303476z"/>
    <path id="_174004864" class="fil11" d="M4.77192 2.64147c-0.0392744,-0.175303 -0.0688212,-0.322003 -0.0875475,-0.418617 0.351495,-0.0895176 0.71154,-0.141811 1.074,-0.155924 0.0047536,0.0492137 0.0105325,0.111315 0.0166037,0.183645 -0.224965,0.00978258 -0.449202,0.0339361 -0.670876,0.0721852 -0.0470233,0.00810907 -0.0884965,0.0383211 -0.107583,0.0819847 -0.0317415,0.072253 -0.110951,0.154683 -0.224601,0.236727z"/>
    <path id="_174004768" class="fil11" d="M7.45491 2.44979c-0.193368,-0.05559 -0.388863,-0.0997577 -0.585527,-0.132597 -0.00935891,-0.0727063 -0.0187983,-0.132597 -0.0266193,-0.177722 0.203176,0.0354571 0.404806,0.0833023 0.604177,0.143786 0.00439347,0.0570347 0.00702024,0.112557 0.00796926,0.166533z"/>
    <path id="_174004672" class="fil4" d="M1.42654 10.0813c-0.0301273,-0.033576 -0.0566407,-0.0675799 -0.0831922,-0.102901 -0.0266744,-0.0348173 -0.0516922,-0.0711641 -0.0760999,-0.108172 -0.0243526,-0.0369357 -0.0476927,-0.0748162 -0.0690839,-0.114531 -0.02112,-0.0397828 -0.0416935,-0.0802265 -0.0565856,-0.124695 -0.00610511,-0.0182899 0.00374949,-0.038105 0.0220521,-0.044172 0.0116298,-0.00395286 0.0238781,-0.00131762 0.0328218,0.00577464l0.00126678 0.00102529c0.0327668,0.0263947 0.0662453,0.0522175 0.10008,0.0776717l0.101279 0.0765702 0.100808 0.0769345c0.0332879,0.0255982 0.0671181,0.0519337 0.0983681,0.0777522 0.0529251,0.0436594 0.0604029,0.121992 0.0167138,0.174942 -0.0436933,0.0529462 -0.12203,0.0604071 -0.174964,0.0167477 -0.00464344,-0.00388083 -0.00952414,-0.00863019 -0.0134643,-0.0129474z"/>
    <path id="_174004576" class="fil4" d="M10.9007 8.55219c0.0226029,-0.0336438 0.0476122,-0.0685289 0.0721852,-0.102465l0.0748204 -0.102465 0.075333 -0.102173c0.0251534,-0.0340039 0.0499466,-0.0683764 0.0737866,-0.102969l0.000809213 -0.00117781c0.0109731,-0.0158665 0.0327625,-0.0198151 0.048629,-0.00884203 0.0101003,0.00693974 0.0153623,0.0185017 0.01507,0.0299112 -0.00160572,0.046875 -0.00987155,0.0914199 -0.0187983,0.135664 -0.00920638,0.0440957 -0.0208404,0.0870349 -0.0336395,0.129457 -0.0129389,0.0423375 -0.0265515,0.0843234 -0.042274,0.125352 -0.0153539,0.0413885 -0.0311568,0.081472 -0.0504635,0.122208 -0.0293181,0.062017 -0.103414,0.0885685 -0.165507,0.059242 -0.0620128,-0.029407 -0.0884965,-0.103486 -0.0591657,-0.165507 0.00255898,-0.00549078 0.00599495,-0.0113332 0.00921486,-0.0162351z"/>
    <path id="_174004480" class="fil4" d="M6.51058 11.0262l0.0178493 0.122653 -0.0178493 -0.122653c1.61082,-0.23382 2.7189,-0.894672 3.36477,-1.40794 0.700935,-0.55701 1.02493,-1.06566 1.02807,-1.07071 0.010829,-0.0171163 0.0256703,-0.0314491 0.043223,-0.0415452 0.581943,-0.334815 0.797765,-0.770269 0.865637,-0.950253 -0.159068,-0.0977114 -0.331087,-0.22175 -0.339645,-0.227965 -0.0541876,-0.0391345 -0.0675756,-0.114167 -0.0302798,-0.169604 0.13238,-0.196956 0.197689,-0.459074 0.225698,-0.604834 -0.433624,-0.110875 -0.627653,-0.327286 -0.636355,-0.337158 -0.0122822,-0.0140447 -0.021209,-0.0306442 -0.0262549,-0.0486333 -0.464852,-1.67491 -1.38542,-2.87081 -2.73617,-3.55441 -1.92369,-0.97353 -4.26939,-0.633067 -5.83683,0.847356 -1.10061,1.0394 -1.6432,2.44764 -1.61263,4.18572 0.00032199,0.01865 -0.00357579,0.037084 -0.0113586,0.0540478 -0.00553739,0.0119179 -0.129982,0.274556 -0.514231,0.504127 0.0683086,0.131792 0.205519,0.36451 0.388422,0.515685 0.0514973,0.042562 0.0599961,0.118331 0.0191796,0.17121 -0.00643133,0.00840988 -0.13613,0.176256 -0.260872,0.315144 0.115989,0.152996 0.446783,0.509317 1.10015,0.664881 0.01976,0.00474512 0.0380711,0.0141845 0.0533191,0.0276446 0.00439347,0.0038766 0.459603,0.399395 1.29,0.734138 0.765151,0.308416 2.01549,0.626924 3.62616,0.393108zm-1.10135 0.328595c-1.12871,0 -2.02412,-0.251364 -2.62866,-0.496369 -0.766574,-0.310611 -1.21889,-0.664224 -1.32599,-0.753081 -0.930658,-0.232138 -1.26624,-0.826003 -1.28024,-0.851453 -0.0262422,-0.0477605 -0.0181755,-0.107142 0.0199295,-0.146201 0.0791715,-0.081184 0.176235,-0.198342 0.240692,-0.278501 -0.25869,-0.258982 -0.410216,-0.611413 -0.417215,-0.627873 -0.025344,-0.0596869 -0.000394015,-0.128864 0.0572846,-0.158559 0.318792,-0.164342 0.457281,-0.360634 0.496454,-0.425358 -0.0243526,-1.79549 0.544405,-3.25448 1.69077,-4.33711 1.6433,-1.55188 4.1022,-1.90885 6.11893,-0.888236 1.40685,0.711976 2.36705,1.94922 2.85421,3.67742 0.0551451,0.050167 0.243759,0.199515 0.59686,0.266511 0.0637795,0.012134 0.107367,0.0713082 0.10005,0.13574 -0.0020421,0.0177646 -0.0470953,0.398811 -0.221525,0.72061 0.0846199,0.058509 0.210997,0.143273 0.310022,0.198634 0.0476122,0.026543 0.0721852,0.081184 0.0606316,0.134499 -0.006139,0.028297 -0.159072,0.69311 -0.985291,1.18027 -0.0774472,0.115628 -0.410512,0.58326 -1.05711,1.09902 -0.670943,0.535203 -1.82153,1.22415 -3.49276,1.46674 -0.401001,0.0582125 -0.780729,0.0833023 -1.13705,0.0832981z"/>
    <path id="_174004384" class="fil2" d="M7.97499 7.88496c-0.149416,-0.06633 -0.303662,-0.12264 -0.462077,-0.168206 0.0678002,-0.0716725 0.137863,-0.1628 0.209607,-0.276891 8.47343e-006,0 0.196151,0.171354 0.25247,0.445097z"/>
    <path id="_174004288" class="fil3" d="M6.25102 9.8208c-0.872802,0 -1.24485,-0.705028 -1.24485,-0.705028 -0.516409,-0.358007 -0.296346,-0.929997 -0.296346,-0.929997 0.246543,0.14254 0.438229,0.197685 0.587425,0.197685 0.330943,-7.62609e-005 0.452422,-0.271701 0.496963,-0.464264 0.0670672,0.0256618 0.144591,0.0413207 0.233672,0.0413207 0.0660462,0 0.138519,-0.00863019 0.217869,-0.0282292 0.186352,-0.046159 0.310683,-0.128212 0.393252,-0.222262 0.094644,0.109557 0.245446,0.237256 0.434357,0.237256 0.130334,0 0.278865,-0.060852 0.439547,-0.230528 0.158415,0.0455659 0.312657,0.10188 0.462073,0.168215 0.0300595,0.146192 0.02026,0.321651 -0.080595,0.515757 8.47343e-006,-4.23672e-006 -0.000220309,1.06676 -1.19526,1.36267 -0.161991,0.0400793 -0.311195,0.0574117 -0.448105,0.0574075z"/>
    <path id="_174004192" class="fil4" d="M6.05846 7.17591c0,0 -0.309005,0.0731384 -0.520586,0.207417 -0.0911995,0.0579159 -0.116726,0.179327 -0.0585811,0.270383 0.105249,0.164702 0.332841,0.385939 0.766464,0.278577 0.433624,-0.107439 0.531699,-0.409271 0.547934,-0.604033 0.00892676,-0.107655 -0.0702829,-0.2031 -0.178014,-0.211726 -0.24975,-0.0201202 -0.557221,0.0593818 -0.557217,0.0593818z"/>
    <path id="_174004096" class="fil4" d="M6.33067 7.74469l0.0117738 0.0282292 0.0144091 0.0316017c0.0103164,0.021065 0.021209,0.0419816 0.0322541,0.06275 0.0223783,0.0414647 0.0482689,0.0806713 0.0750365,0.118192 0.0544164,0.0747399 0.118187,0.138884 0.188835,0.187665 0.141451,0.0974826 0.315,0.12572 0.497912,0.0906869 0.0227554,-0.00453329 0.0456379,-0.00826583 0.0680925,-0.0149175 0.022819,-0.00563483 0.0452693,-0.011706 0.0666266,-0.019527 0.0443203,-0.0129474 0.0846157,-0.0313009 0.123746,-0.0507559 0.0377364,-0.0209972 0.0727698,-0.0447609 0.10363,-0.0720411 0.0302078,-0.0280174 0.0557298,-0.0595343 0.0780403,-0.0939068 0.0899624,-0.136842 0.108752,-0.338179 0.0966098,-0.545011l-0.000216073 -0.00365629c-0.00116933,-0.02026 0.0142608,-0.0377364 0.0345885,-0.03891 0.0133118,-0.000804976 0.0254542,0.00563483 0.0324744,0.015875 0.0668554,0.0971182 0.103783,0.206972 0.118992,0.326477 0.0137481,0.118628 -0.0032199,0.249543 -0.0630423,0.366849 -0.0293223,0.0585853 -0.0691898,0.1119 -0.114239,0.159148 -0.0459302,0.0463624 -0.0970505,0.085641 -0.150514,0.119429 -0.108163,0.0656691 -0.222186,0.105393 -0.33884,0.130622 -0.0585048,0.0132355 -0.119505,0.0205523 -0.181158,0.024645 -0.0621611,0.00160572 -0.125208,0 -0.188106,-0.0115535 -0.125572,-0.0199719 -0.249174,-0.0705795 -0.351639,-0.144959 -0.0514803,-0.0369357 -0.0985884,-0.0785445 -0.141078,-0.123449 -0.0420494,-0.045282 -0.0789131,-0.0939068 -0.111972,-0.144154 -0.0332031,-0.0502475 -0.0612883,-0.102973 -0.0858613,-0.156877 -0.0123585,-0.0269879 -0.0236239,-0.0544121 -0.0336438,-0.0824973l-0.0144048 -0.0427146c-0.00482138,-0.0152776 -0.00848614,-0.02742 -0.0136761,-0.0472394 -0.017845,-0.0680247 0.022963,-0.137642 0.0909792,-0.155415 0.0622374,-0.0163156 0.125792,0.0164554 0.149781,0.0743078l0.00460955 0.0111087z"/>
    <path id="_174004000" class="fil4" d="M6.33279 7.75339c0.00468157,0.0199676 0.00702024,0.0324024 0.00994357,0.0482011l0.00717276 0.0444601c0.00424519,0.0295426 0.00708803,0.0590259 0.00877,0.0886448 0.00337243,0.0592378 0.00314788,0.11892 -0.00277505,0.178819 -0.00577464,0.0598945 -0.0156547,0.120162 -0.0317415,0.179844 -0.0166757,0.0594496 -0.03891,0.118255 -0.0672155,0.174938 -0.0559458,0.113582 -0.141591,0.216047 -0.243395,0.292325 -0.0501712,0.0395625 -0.105168,0.0704312 -0.160974,0.0979275 -0.0564585,0.0251576 -0.113798,0.0471758 -0.171723,0.06275 -0.114968,0.0321058 -0.234329,0.0501754 -0.360634,0.0425663 -0.0630381,-0.0049739 -0.126597,-0.0157945 -0.188835,-0.0353978 -0.061873,-0.0207684 -0.122068,-0.0493662 -0.175311,-0.0874712 -0.107651,-0.0758457 -0.183717,-0.183717 -0.226868,-0.295028 -0.0423375,-0.112786 -0.0609918,-0.227232 -0.0471716,-0.344254 0.00241493,-0.02026 0.0206964,-0.0346648 0.0408843,-0.0323219 0.013244,0.00160572 0.0240603,0.0100156 0.0291783,0.021281l0.00153793 0.00343598c0.0857935,0.188542 0.196372,0.357854 0.339789,0.436916 0.0357706,0.0199676 0.0730622,0.0360545 0.112777,0.046659 0.0400836,0.00972326 0.082133,0.0144091 0.125284,0.0154344 0.0437356,-0.00110155 0.0879076,-0.00365629 0.133181,-0.0128711 0.0225309,-0.00307586 0.0451931,-0.00819381 0.06794,-0.0138244 0.0230435,-0.00460955 0.044977,-0.0119941 0.0672113,-0.018578 0.178167,-0.0543401 0.318508,-0.160313 0.398154,-0.312585 0.039715,-0.0760618 0.066186,-0.16258 0.0794257,-0.254072 0.00615171,-0.0456379 0.0107528,-0.0924451 0.0111892,-0.139545 0.000152522,-0.0234799 0,-0.0470996 -0.000732952,-0.0705032l-0.00197007 -0.034669 -0.00277929 -0.0305001 -0.00109731 -0.0119857c-0.00635931,-0.0699948 0.0451973,-0.132012 0.115188,-0.138447 0.0640719,-0.00585514 0.121407,0.0368594 0.135596,0.0978512z"/>
    <path id="_174003904" class="fil4" d="M7.55884 8.2404c0,0 0.0442483,0.360345 -0.10005,0.72142 -0.112337,0.2815 -0.339132,0.563733 -0.790893,0.675557 -0.451685,0.11182 -0.784021,-0.0319575 -1.01469,-0.22855 -0.296053,-0.251958 -0.425065,-0.591306 -0.425065,-0.591306 0,0 1.05674,0.126089 0.988066,-1.00467 0.466831,1.03217 1.34263,0.427557 1.34263,0.427548z"/>
    <path id="_174003808" class="fil12" d="M7.45879 8.96182c-0.112337,0.281509 -0.339132,0.563742 -0.790893,0.675566 -0.451685,0.11182 -0.784021,-0.0319575 -1.01469,-0.22855 8.47343e-006,-4.23672e-006 0.621509,-1.09821 1.80558,-0.447016z"/>
    <path id="_174003712" class="fil4" d="M5.43277 8.94442c0.155564,0.268188 0.532064,0.735676 1.20448,0.569071 0.672566,-0.166537 0.787309,-0.755419 0.799744,-1.0653 -0.164262,0.0697702 -0.413804,0.136986 -0.674316,0.0645803 -0.170621,-0.0473919 -0.319897,-0.146421 -0.446423,-0.295693 -0.0422697,0.191101 -0.128059,0.348351 -0.256855,0.469826 -0.196656,0.185543 -0.448761,0.242522 -0.626627,0.257512zm0.92715 0.859858c-0.88136,0.000144048 -1.24698,-0.930946 -1.25092,-0.941551 -0.0158707,-0.0416893 -0.00877424,-0.0886406 0.01865,-0.12389 0.0275005,-0.0351139 0.0714522,-0.0534631 0.1157,-0.0481249 0.00366476,0.000364358 0.397057,0.0419816 0.642134,-0.190517 0.153513,-0.145692 0.221898,-0.374314 0.20332,-0.679658 -0.00372831,-0.0614324 0.0369315,-0.116794 0.0966861,-0.131567 0.0597546,-0.0148497 0.121551,0.0151378 0.146929,0.0712319 0.126017,0.278717 0.293274,0.449058 0.496886,0.506321 0.325604,0.0914199 0.653984,-0.129084 0.657199,-0.131355 0.0367916,-0.0250136 0.0841073,-0.0292545 0.124699,-0.0108968 0.04052,0.0183577 0.0687492,0.0563907 0.0740875,0.100635 0.00153793,0.0125068 0.140494,1.25714 -0.98668,1.5363 -0.120454,0.0297629 -0.233303,0.0430747 -0.338687,0.0430705z"/>
    <path id="_174003616" class="fil4" d="M3.20557 7.13671c0.0944915,0.509613 0.485693,0.864324 0.873751,0.792359 0.388062,-0.0720411 0.625975,-0.543473 0.531407,-1.05309 -0.0945593,-0.509541 -0.485769,-0.86432 -0.873755,-0.792283 -0.388062,0.0719649 -0.625971,0.543401 -0.531403,1.05301z"/>
    <path id="_174002896" class="fil1" d="M3.84331 6.84263c0.0276446,0.148832 0.141879,0.252466 0.255241,0.231405 0.113366,-0.0209972 0.18284,-0.158703 0.155199,-0.307539 -0.0275683,-0.148832 -0.141888,-0.252466 -0.255177,-0.231473 -0.113353,0.0210565 -0.182835,0.158779 -0.155263,0.307607z"/>
    <path id="_174002848" class="fil4" d="M8.39179 5.62828c-0.104511,0.0533148 -0.209612,0.112921 -0.305421,0.176917 -0.0963938,0.0644277 -0.185767,0.134863 -0.266947,0.210997 -0.0417571,0.0370755 -0.0780361,0.0786928 -0.115993,0.118336l-0.0515608 0.0637711c-0.00825736,0.0108926 -0.017845,0.0207726 -0.0255982,0.0319618l-0.023035 0.0336395c-0.0653852,0.087323 -0.11168,0.186356 -0.156805,0.286114l-0.235273 -0.18131c0.00935467,-0.00629152 0.0152776,-0.00979529 0.0217894,-0.0137439 0.00658809,-0.00410114 0.0128711,-0.00775319 0.0190144,-0.0110451 0.012439,-0.00688043 0.0250136,-0.0137481 0.0373,-0.019599 0.024645,-0.0127271 0.0495865,-0.0235519 0.0744518,-0.0345208 0.0498068,-0.0213615 0.100999,-0.038177 0.15256,-0.0529505 0.103198,-0.0291147 0.210048,-0.0444643 0.316606,-0.0452693 0.106342,-0.000440618 0.212827,0.0103842 0.313462,0.0404395 0.101588,0.0248653 0.195859,0.0710158 0.28289,0.122433 0.0255262,0.0149895 0.0339361,0.0478325 0.0189424,0.0732825 -0.0111892,0.0189339 -0.0321779,0.0284495 -0.0527302,0.0259626l-0.00635931 -0.000881237c-0.0472436,-0.0058509 -0.0919367,-0.0165232 -0.137498,-0.0211327 -0.0457777,-0.00373255 -0.0901065,-0.0100919 -0.135011,-0.00965548 -0.0891447,-0.00292757 -0.176841,0.00460955 -0.262045,0.0199676 -0.0853444,0.0141845 -0.168431,0.0383974 -0.248005,0.0697702 -0.0199634,0.00745662 -0.0392744,0.0166757 -0.0589454,0.0247933l-0.0571914 0.0275725c-0.018506,0.00987155 -0.037228,0.019455 -0.0546367,0.0301315 -0.00906657,0.00511372 -0.0172604,0.0105325 -0.025594,0.0158707 -0.00423672,0.002631 -0.00833786,0.00512219 -0.0118501,0.00760914l-0.00848191 0.00584667 -0.00336395 0.00226241c-0.0705795,0.0483494 -0.166973,0.030284 -0.215314,-0.0403632 -0.0296867,-0.0433755 -0.0339361,-0.0974911 -0.0166757,-0.143201 0.0490781,-0.12719 0.106337,-0.254148 0.190521,-0.363485 0.0375924,-0.0578566 0.0871026,-0.106121 0.1323,-0.157318 0.0505398,-0.0459345 0.0993213,-0.0937585 0.155271,-0.132084 0.10868,-0.0805273 0.227452,-0.144735 0.351707,-0.18986 0.125068,-0.0445448 0.251665,-0.0735748 0.387185,-0.0756211 0.0297714,-0.000444855 0.0541961,0.0233274 0.0546325,0.0530225 0.000364358,0.021209 -0.0116298,0.0397107 -0.0292545,0.0487815l-0.00504169 0.00255898z"/>
    <path id="_174003136" class="fil13" d="M5.84314 7.5677c-0.0482731,0 -0.0828659,-0.012134 -0.0903268,-0.0357579 -0.0133838,-0.0419138 0.0642159,-0.104071 0.173333,-0.138812 0.0478325,-0.0152861 0.0937628,-0.0226707 0.131427,-0.0226707 0.0482011,-4.23672e-006 0.0827897,0.0122145 0.0903225,0.0357621 0.0133923,0.0419774 -0.0642879,0.104147 -0.173333,0.138812 -0.0479003,0.0152776 -0.0938348,0.0226707 -0.131423,0.0226664z"/>
   </g>
   <path id="_107884856" class="fil14" d="M27.2198 14.7245c-0.747674,0 -1.47336,-0.0923604 -2.17705,-0.277081 -0.703697,-0.184721 -1.27545,-0.431014 -1.71526,-0.738879l0.857626 -1.92636c0.413423,0.272679 0.892812,0.492586 1.43818,0.659712 0.545363,0.167126 1.08193,0.250691 1.6097,0.250691 1.00276,0 1.50414,-0.250691 1.50414,-0.752072 0,-0.263888 -0.142938,-0.459603 -0.428811,-0.587145 -0.285877,-0.127546 -0.74548,-0.261689 -1.37881,-0.402424 -0.694898,-0.149535 -1.27545,-0.310068 -1.74164,-0.481592 -0.4662,-0.171528 -0.866425,-0.446406 -1.20068,-0.824643 -0.334256,-0.378237 -0.501381,-0.888414 -0.501381,-1.53053 0,-0.562958 0.153933,-1.07094 0.461798,-1.52394 0.307869,-0.453002 0.767468,-0.811446 1.37881,-1.07533 0.611333,-0.263884 1.36121,-0.395828 2.24962,-0.395828 0.606935,0 1.20507,0.068173 1.79442,0.204511 0.589344,0.136342 1.10832,0.336455 1.55693,0.600343l-0.804849 1.93956c-0.879619,-0.474991 -1.73285,-0.712489 -2.55969,-0.712489 -0.518972,0 -0.897209,0.0769642 -1.13471,0.230901 -0.237498,0.153933 -0.356244,0.354045 -0.356244,0.600338 0,0.246293 0.140739,0.431014 0.422214,0.554158 0.281479,0.123149 0.734481,0.250691 1.35901,0.382635 0.703697,0.149535 1.28644,0.310064 1.74824,0.481592 0.461798,0.171523 0.862028,0.444207 1.20068,0.818046 0.338653,0.373835 0.507978,0.881817 0.507978,1.52394 0,0.554158 -0.153933,1.05554 -0.461798,1.50415 -0.307869,0.448605 -0.769667,0.807048 -1.3854,1.07533 -0.61573,0.268282 -1.36341,0.402424 -2.24303,0.402424z"/>
   <path id="_1078848561" class="fil14" d="M36.0468 14.6585c-0.791656,0 -1.49975,-0.15833 -2.12428,-0.474991 -0.62453,-0.316665 -1.11052,-0.756474 -1.45797,-1.31943 -0.347449,-0.562958 -0.521175,-1.20068 -0.521175,-1.91317 0,-0.712493 0.173727,-1.34802 0.521175,-1.90657 0.347449,-0.55856 0.833438,-0.993972 1.45797,-1.30623 0.62453,-0.312267 1.33262,-0.468399 2.12428,-0.468399 0.809251,0 1.50855,0.173727 2.09789,0.521175 0.589344,0.347449 1.00716,0.829041 1.25346,1.44477l-1.93956 0.989574c-0.32546,-0.642121 -0.800451,-0.963184 -1.42498,-0.963184 -0.448605,0 -0.820245,0.149535 -1.11492,0.448605 -0.294672,0.29907 -0.442008,0.712493 -0.442008,1.24026 0,0.536567 0.147336,0.956583 0.442008,1.26005 0.294672,0.303472 0.666313,0.455205 1.11492,0.455205 0.62453,0 1.09952,-0.321063 1.42498,-0.963184l1.93956 0.98957c-0.246293,0.615735 -0.664114,1.09733 -1.25346,1.44478 -0.589344,0.347449 -1.28864,0.521171 -2.09789,0.521171z"/>
   <path id="_10788485612" class="fil14" d="M43.9369 14.6585c-0.76527,0 -1.45577,-0.15833 -2.0715,-0.474991 -0.615735,-0.316665 -1.09733,-0.756474 -1.44478,-1.31943 -0.347449,-0.562958 -0.521175,-1.20068 -0.521175,-1.91317 0,-0.703697 0.173727,-1.33702 0.521175,-1.89998 0.347449,-0.562958 0.826842,-1.00057 1.43817,-1.31283 0.611337,-0.312267 1.30404,-0.468399 2.0781,-0.468399 0.774065,0 1.46896,0.156131 2.0847,0.468399 0.61573,0.312263 1.09512,0.747674 1.43817,1.30623 0.343051,0.558556 0.514579,1.19408 0.514579,1.90657 0,0.712489 -0.171528,1.35021 -0.514579,1.91317 -0.343051,0.562954 -0.822444,1.00276 -1.43817,1.31943 -0.615735,0.316661 -1.31063,0.474991 -2.0847,0.474991zm0 -1.99233c0.439809,0 0.800451,-0.151734 1.08193,-0.455205 0.281479,-0.303467 0.422218,-0.723483 0.422218,-1.26005 0,-0.527772 -0.140739,-0.941195 -0.422218,-1.24026 -0.281479,-0.29907 -0.642121,-0.448605 -1.08193,-0.448605 -0.439809,0 -0.800451,0.149535 -1.08193,0.448605 -0.281479,0.29907 -0.422218,0.712493 -0.422218,1.24026 0,0.536567 0.140739,0.956583 0.422218,1.26005 0.281479,0.303472 0.642121,0.455205 1.08193,0.455205z"/>
   <path id="_107884856123" class="fil14" d="M54.0702 14.2495c-0.211107,0.131944 -0.468394,0.2331 -0.771862,0.303467 -0.303472,0.0703719 -0.626729,0.105554 -0.96978,0.105554 -0.932395,0 -1.64929,-0.228698 -2.15067,-0.686102 -0.501381,-0.4574 -0.752076,-1.1391 -0.752076,-2.04511l0 -2.40136 -1.04235 0 0 -1.87359 1.04235 0 0 -1.86039 2.50692 0 0 1.86039 1.63609 0 0 1.87359 -1.63609 0 0 2.37497c0,0.255088 0.0681688,0.455201 0.204511,0.600338 0.136342,0.145137 0.318859,0.217708 0.547562,0.217708 0.290274,0 0.545363,-0.0747696 0.76527,-0.224304l0.620128 1.75484z"/>
   <path id="_1078848561234" class="fil14" d="M59.968 14.2495c-0.211107,0.131944 -0.468394,0.2331 -0.771862,0.303467 -0.303472,0.0703719 -0.626729,0.105554 -0.96978,0.105554 -0.932395,0 -1.64929,-0.228698 -2.15067,-0.686102 -0.501381,-0.4574 -0.752076,-1.1391 -0.752076,-2.04511l0 -2.40136 -1.04235 0 0 -1.87359 1.04235 0 0 -1.86039 2.50692 0 0 1.86039 1.63609 0 0 1.87359 -1.63609 0 0 2.37497c0,0.255088 0.0681688,0.455201 0.204511,0.600338 0.136342,0.145137 0.318859,0.217708 0.547562,0.217708 0.290274,0 0.545363,-0.0747696 0.76527,-0.224304l0.620128 1.75484z"/>
   <path id="_10788485612345" class="fil14" d="M60.9312 7.38843l2.50692 0 0 7.1513 -2.50692 0 0 -7.1513zm1.25346 -0.79166c-0.4574,0 -0.826842,-0.127542 -1.10832,-0.382631 -0.281475,-0.255093 -0.422214,-0.571753 -0.422214,-0.94999 0,-0.378237 0.140739,-0.694898 0.422214,-0.949986 0.281479,-0.255088 0.650921,-0.382635 1.10832,-0.382635 0.4574,0 0.826842,0.120946 1.10832,0.362841 0.281479,0.241895 0.422214,0.551964 0.422214,0.930196 0,0.395832 -0.140735,0.723487 -0.422214,0.982977 -0.281479,0.259486 -0.650921,0.389227 -1.10832,0.389227z"/>
   <path id="_107884856123456" class="fil14" d="M67.6603 14.6585c-0.598144,0 -1.18749,-0.0681688 -1.76804,-0.204511 -0.580544,-0.136342 -1.04674,-0.314462 -1.39859,-0.534369l0.752072 -1.71526c0.32546,0.202312 0.712493,0.362845 1.1611,0.481592 0.448605,0.118751 0.892812,0.178124 1.33262,0.178124 0.404628,0 0.692699,-0.0417825 0.864227,-0.125347 0.171523,-0.083565 0.257287,-0.204511 0.257287,-0.362841 0,-0.158335 -0.103355,-0.270485 -0.310064,-0.336455 -0.206709,-0.0659741 -0.534369,-0.129745 -0.982973,-0.191317 -0.571753,-0.0703719 -1.05774,-0.162728 -1.45797,-0.277081 -0.400226,-0.114349 -0.745476,-0.325456 -1.03575,-0.633326 -0.290274,-0.307865 -0.435412,-0.738879 -0.435412,-1.29304 0,-0.457404 0.136342,-0.864227 0.409021,-1.22047 0.272684,-0.356244 0.67071,-0.637723 1.19408,-0.844433 0.52337,-0.206714 1.1501,-0.310068 1.88018,-0.310068 0.518977,0 1.03355,0.0527768 1.54373,0.15833 0.510177,0.105558 0.936793,0.255093 1.27984,0.448609l-0.752076 1.70206c-0.633321,-0.351847 -1.31943,-0.527768 -2.05831,-0.527768 -0.395828,0 -0.686102,0.0461802 -0.870819,0.138541 -0.184721,0.0923562 -0.277081,0.213306 -0.277081,0.362841 0,0.167126 0.101156,0.283678 0.303467,0.349648 0.202312,0.0659699 0.536567,0.134143 1.00277,0.204511 0.589344,0.0879627 1.07753,0.189119 1.46456,0.303472 0.387028,0.114349 0.723483,0.323257 1.00936,0.626725 0.285877,0.303472 0.428815,0.727885 0.428815,1.27325 0,0.448609 -0.136342,0.851033 -0.409021,1.20728 -0.272684,0.356244 -0.675108,0.635524 -1.20728,0.837836 -0.53217,0.202312 -1.17209,0.303467 -1.91977,0.303467z"/>
   <path id="_1078848561234567" class="fil14" d="M76.9358 7.26968c0.888414,0 1.60311,0.263888 2.14407,0.791656 0.540965,0.527772 0.811446,1.32383 0.811446,2.38816l0 4.09023 -2.50691 0 0 -3.6812c0,-0.976377 -0.39143,-1.46456 -1.17429,-1.46456 -0.431014,0 -0.776264,0.140739 -1.03575,0.422214 -0.25949,0.281479 -0.389231,0.703697 -0.389231,1.26665l0 3.4569 -2.50692 0 0 -9.79015 2.50692 0 0 3.29857c0.272679,-0.255088 0.593742,-0.448605 0.963179,-0.580549 0.369442,-0.13194 0.76527,-0.197914 1.18749,-0.197914z"/>
   <path id="_10788485612345678" class="fil15 str0" d="M27.2198 14.7245c-0.747674,0 -1.47336,-0.0923604 -2.17705,-0.277081 -0.703697,-0.184721 -1.27545,-0.431014 -1.71526,-0.738879l0.857626 -1.92636c0.413423,0.272679 0.892812,0.492586 1.43818,0.659712 0.545363,0.167126 1.08193,0.250691 1.6097,0.250691 1.00276,0 1.50414,-0.250691 1.50414,-0.752072 0,-0.263888 -0.142938,-0.459603 -0.428811,-0.587145 -0.285877,-0.127546 -0.74548,-0.261689 -1.37881,-0.402424 -0.694898,-0.149535 -1.27545,-0.310068 -1.74164,-0.481592 -0.4662,-0.171528 -0.866425,-0.446406 -1.20068,-0.824643 -0.334256,-0.378237 -0.501381,-0.888414 -0.501381,-1.53053 0,-0.562958 0.153933,-1.07094 0.461798,-1.52394 0.307869,-0.453002 0.767468,-0.811446 1.37881,-1.07533 0.611333,-0.263884 1.36121,-0.395828 2.24962,-0.395828 0.606935,0 1.20507,0.068173 1.79442,0.204511 0.589344,0.136342 1.10832,0.336455 1.55693,0.600343l-0.804849 1.93956c-0.879619,-0.474991 -1.73285,-0.712489 -2.55969,-0.712489 -0.518972,0 -0.897209,0.0769642 -1.13471,0.230901 -0.237498,0.153933 -0.356244,0.354045 -0.356244,0.600338 0,0.246293 0.140739,0.431014 0.422214,0.554158 0.281479,0.123149 0.734481,0.250691 1.35901,0.382635 0.703697,0.149535 1.28644,0.310064 1.74824,0.481592 0.461798,0.171523 0.862028,0.444207 1.20068,0.818046 0.338653,0.373835 0.507978,0.881817 0.507978,1.52394 0,0.554158 -0.153933,1.05554 -0.461798,1.50415 -0.307869,0.448605 -0.769667,0.807048 -1.3854,1.07533 -0.61573,0.268282 -1.36341,0.402424 -2.24303,0.402424z"/>
   <path id="_107884856123456789" class="fil15 str0" d="M36.0468 14.6585c-0.791656,0 -1.49975,-0.15833 -2.12428,-0.474991 -0.62453,-0.316665 -1.11052,-0.756474 -1.45797,-1.31943 -0.347449,-0.562958 -0.521175,-1.20068 -0.521175,-1.91317 0,-0.712493 0.173727,-1.34802 0.521175,-1.90657 0.347449,-0.55856 0.833438,-0.993972 1.45797,-1.30623 0.62453,-0.312267 1.33262,-0.468399 2.12428,-0.468399 0.809251,0 1.50855,0.173727 2.09789,0.521175 0.589344,0.347449 1.00716,0.829041 1.25346,1.44477l-1.93956 0.989574c-0.32546,-0.642121 -0.800451,-0.963184 -1.42498,-0.963184 -0.448605,0 -0.820245,0.149535 -1.11492,0.448605 -0.294672,0.29907 -0.442008,0.712493 -0.442008,1.24026 0,0.536567 0.147336,0.956583 0.442008,1.26005 0.294672,0.303472 0.666313,0.455205 1.11492,0.455205 0.62453,0 1.09952,-0.321063 1.42498,-0.963184l1.93956 0.98957c-0.246293,0.615735 -0.664114,1.09733 -1.25346,1.44478 -0.589344,0.347449 -1.28864,0.521171 -2.09789,0.521171z"/>
   <path id="_10788485612345678910" class="fil15 str0" d="M43.9369 14.6585c-0.76527,0 -1.45577,-0.15833 -2.0715,-0.474991 -0.615735,-0.316665 -1.09733,-0.756474 -1.44478,-1.31943 -0.347449,-0.562958 -0.521175,-1.20068 -0.521175,-1.91317 0,-0.703697 0.173727,-1.33702 0.521175,-1.89998 0.347449,-0.562958 0.826842,-1.00057 1.43817,-1.31283 0.611337,-0.312267 1.30404,-0.468399 2.0781,-0.468399 0.774065,0 1.46896,0.156131 2.0847,0.468399 0.61573,0.312263 1.09512,0.747674 1.43817,1.30623 0.343051,0.558556 0.514579,1.19408 0.514579,1.90657 0,0.712489 -0.171528,1.35021 -0.514579,1.91317 -0.343051,0.562954 -0.822444,1.00276 -1.43817,1.31943 -0.615735,0.316661 -1.31063,0.474991 -2.0847,0.474991zm0 -1.99233c0.439809,0 0.800451,-0.151734 1.08193,-0.455205 0.281479,-0.303467 0.422218,-0.723483 0.422218,-1.26005 0,-0.527772 -0.140739,-0.941195 -0.422218,-1.24026 -0.281479,-0.29907 -0.642121,-0.448605 -1.08193,-0.448605 -0.439809,0 -0.800451,0.149535 -1.08193,0.448605 -0.281479,0.29907 -0.422218,0.712493 -0.422218,1.24026 0,0.536567 0.140739,0.956583 0.422218,1.26005 0.281479,0.303472 0.642121,0.455205 1.08193,0.455205z"/>
   <path id="_1078848561234567891011" class="fil15 str0" d="M54.0702 14.2495c-0.211107,0.131944 -0.468394,0.2331 -0.771862,0.303467 -0.303472,0.0703719 -0.626729,0.105554 -0.96978,0.105554 -0.932395,0 -1.64929,-0.228698 -2.15067,-0.686102 -0.501381,-0.4574 -0.752076,-1.1391 -0.752076,-2.04511l0 -2.40136 -1.04235 0 0 -1.87359 1.04235 0 0 -1.86039 2.50692 0 0 1.86039 1.63609 0 0 1.87359 -1.63609 0 0 2.37497c0,0.255088 0.0681688,0.455201 0.204511,0.600338 0.136342,0.145137 0.318859,0.217708 0.547562,0.217708 0.290274,0 0.545363,-0.0747696 0.76527,-0.224304l0.620128 1.75484z"/>
   <path id="_107884856123456789101112" class="fil15 str0" d="M59.968 14.2495c-0.211107,0.131944 -0.468394,0.2331 -0.771862,0.303467 -0.303472,0.0703719 -0.626729,0.105554 -0.96978,0.105554 -0.932395,0 -1.64929,-0.228698 -2.15067,-0.686102 -0.501381,-0.4574 -0.752076,-1.1391 -0.752076,-2.04511l0 -2.40136 -1.04235 0 0 -1.87359 1.04235 0 0 -1.86039 2.50692 0 0 1.86039 1.63609 0 0 1.87359 -1.63609 0 0 2.37497c0,0.255088 0.0681688,0.455201 0.204511,0.600338 0.136342,0.145137 0.318859,0.217708 0.547562,0.217708 0.290274,0 0.545363,-0.0747696 0.76527,-0.224304l0.620128 1.75484z"/>
   <path id="_10788485612345678910111213" class="fil15 str0" d="M60.9312 7.38843l2.50692 0 0 7.1513 -2.50692 0 0 -7.1513zm1.25346 -0.79166c-0.4574,0 -0.826842,-0.127542 -1.10832,-0.382631 -0.281475,-0.255093 -0.422214,-0.571753 -0.422214,-0.94999 0,-0.378237 0.140739,-0.694898 0.422214,-0.949986 0.281479,-0.255088 0.650921,-0.382635 1.10832,-0.382635 0.4574,0 0.826842,0.120946 1.10832,0.362841 0.281479,0.241895 0.422214,0.551964 0.422214,0.930196 0,0.395832 -0.140735,0.723487 -0.422214,0.982977 -0.281479,0.259486 -0.650921,0.389227 -1.10832,0.389227z"/>
   <path id="_1078848561234567891011121314" class="fil15 str0" d="M67.6603 14.6585c-0.598144,0 -1.18749,-0.0681688 -1.76804,-0.204511 -0.580544,-0.136342 -1.04674,-0.314462 -1.39859,-0.534369l0.752072 -1.71526c0.32546,0.202312 0.712493,0.362845 1.1611,0.481592 0.448605,0.118751 0.892812,0.178124 1.33262,0.178124 0.404628,0 0.692699,-0.0417825 0.864227,-0.125347 0.171523,-0.083565 0.257287,-0.204511 0.257287,-0.362841 0,-0.158335 -0.103355,-0.270485 -0.310064,-0.336455 -0.206709,-0.0659741 -0.534369,-0.129745 -0.982973,-0.191317 -0.571753,-0.0703719 -1.05774,-0.162728 -1.45797,-0.277081 -0.400226,-0.114349 -0.745476,-0.325456 -1.03575,-0.633326 -0.290274,-0.307865 -0.435412,-0.738879 -0.435412,-1.29304 0,-0.457404 0.136342,-0.864227 0.409021,-1.22047 0.272684,-0.356244 0.67071,-0.637723 1.19408,-0.844433 0.52337,-0.206714 1.1501,-0.310068 1.88018,-0.310068 0.518977,0 1.03355,0.0527768 1.54373,0.15833 0.510177,0.105558 0.936793,0.255093 1.27984,0.448609l-0.752076 1.70206c-0.633321,-0.351847 -1.31943,-0.527768 -2.05831,-0.527768 -0.395828,0 -0.686102,0.0461802 -0.870819,0.138541 -0.184721,0.0923562 -0.277081,0.213306 -0.277081,0.362841 0,0.167126 0.101156,0.283678 0.303467,0.349648 0.202312,0.0659699 0.536567,0.134143 1.00277,0.204511 0.589344,0.0879627 1.07753,0.189119 1.46456,0.303472 0.387028,0.114349 0.723483,0.323257 1.00936,0.626725 0.285877,0.303472 0.428815,0.727885 0.428815,1.27325 0,0.448609 -0.136342,0.851033 -0.409021,1.20728 -0.272684,0.356244 -0.675108,0.635524 -1.20728,0.837836 -0.53217,0.202312 -1.17209,0.303467 -1.91977,0.303467z"/>
   <path id="_107884856123456789101112131415" class="fil15 str0" d="M76.9358 7.26968c0.888414,0 1.60311,0.263888 2.14407,0.791656 0.540965,0.527772 0.811446,1.32383 0.811446,2.38816l0 4.09023 -2.50691 0 0 -3.6812c0,-0.976377 -0.39143,-1.46456 -1.17429,-1.46456 -0.431014,0 -0.776264,0.140739 -1.03575,0.422214 -0.25949,0.281479 -0.389231,0.703697 -0.389231,1.26665l0 3.4569 -2.50692 0 0 -9.79015 2.50692 0 0 3.29857c0.272679,-0.255088 0.593742,-0.448605 0.963179,-0.580549 0.369442,-0.13194 0.76527,-0.197914 1.18749,-0.197914z"/>
  </g>
 </g>
</svg>
