<?xml version="1.0" encoding="UTF-8"?>
<!DOCTYPE svg PUBLIC "-//W3C//DTD SVG 1.1//EN" "http://www.w3.org/Graphics/SVG/1.1/DTD/svg11.dtd">
<!-- Creator: CorelDRAW -->
<svg xmlns="http://www.w3.org/2000/svg" xml:space="preserve" width="54px" height="38px" style="shape-rendering:geometricPrecision; text-rendering:geometricPrecision; image-rendering:optimizeQuality; fill-rule:evenodd; clip-rule:evenodd"
viewBox="0 0 20.7103 14.7438"
 xmlns:xlink="http://www.w3.org/1999/xlink">
 <defs>
  <style type="text/css">
   <![CDATA[
    .fil4 {fill:#000072}
    .fil13 {fill:#4D4D9D}
    .fil2 {fill:#AF6C3E}
    .fil6 {fill:#B065A4}
    .fil8 {fill:#B19DA7}
    .fil3 {fill:#B2B2D4}
    .fil10 {fill:#DD6B2C}
    .fil9 {fill:#E7D3C5}
    .fil11 {fill:#F5D2BF}
    .fil0 {fill:#FA9B27}
    .fil5 {fill:#FC90BA}
    .fil7 {fill:#FDE1BE}
    .fil12 {fill:#FF4A8B}
    .fil1 {fill:white}
   ]]>
  </style>
 </defs>
 <g id="Слой_x0020_1">
  <metadata id="CorelCorpID_0Corel-Layer"/>
  <path class="fil0" d="M20.5868 6.90231c0,0.011632 -1.03066e-005,0.0232743 -0.000735888,0.0352711 -0.0188981,0.410419 -0.0829739,0.940906 -0.255753,1.49211 -0.357252,1.14022 -1.18102,2.37069 -3.03549,2.81566 1.03066e-005,-4.12262e-006 -0.931014,0.33654 -0.597745,-1.28319 1.44292e-005,0 1.86465,0.223028 2.28779,-2.01241 0.0567335,-0.299745 0.0876284,-0.643632 0.084355,-1.03835 -0.00325893,-0.421332 0.33763,-0.764054 0.758599,-0.764054 0.419518,-6.18393e-006 0.758962,0.339815 0.758973,0.754961z"/>
  <path class="fil1" d="M20.5868 6.90231c0,0.011632 -1.03066e-005,0.0232743 -0.000735888,0.0352711 -0.0188981,0.410419 -0.0829739,0.940906 -0.255753,1.49211 -0.618173,0.152053 -1.0526,-0.122603 -1.34544,-0.479941 0.0567335,-0.299745 0.0876284,-0.643632 0.084355,-1.03835 -0.00325893,-0.421332 0.33763,-0.764054 0.758599,-0.764054 0.419518,-6.18393e-006 0.758962,0.339815 0.758973,0.754961z"/>
  <path class="fil2" d="M17.6116 11.0298c-0.110097,-0.080352 -0.211476,-0.169718 -0.303318,-0.266944 1.32959,-0.475874 2.03023,-1.40245 2.39447,-2.32583 0.0906235,0.0229032 0.186961,0.0354855 0.289493,0.0354855 0.0647334,0 0.131986,-0.00501517 0.201722,-0.015633 -0.336029,1.02576 -1.06038,2.09109 -2.58237,2.57292z"/>
  <path class="fil3" d="M19.9923 8.47252c-0.102538,0 -0.19889,-0.0125802 -0.289499,-0.0354855 0.0442213,-0.111917 0.0834089,-0.223827 0.118169,-0.334796 0.172851,-0.551207 0.236843,-1.08169 0.255751,-1.49211 0.000725581,-0.012001 0.000725581,-0.023635 0.000725581,-0.035269 0,-0.0963518 -0.0183251,-0.188486 -0.0517018,-0.273348 0.0989697,0.0320637 0.188995,0.088424 0.263168,0.166088 0.120364,0.126094 0.182232,0.290948 0.174234,0.464452 -0.0199184,0.432234 -0.0882798,0.972753 -0.269131,1.52483 -0.0697259,0.0106096 -0.137001,0.015633 -0.201716,0.015633z"/>
  <path class="fil4" d="M16.7975 10.0913c-0.0902504,0.501911 -0.0544784,0.851031 0.102814,0.988687 0.139256,0.121943 0.351375,0.0499559 0.353412,0.0493045 0.00392886,-0.00138314 0.00858124,-0.00276628 0.012508,-0.00371036 2.64281,-0.634034 3.13736,-2.89958 3.19692,-4.19353 0.00801025,-0.173507 -0.0538847,-0.338358 -0.174234,-0.464452 -0.121362,-0.127119 -0.285057,-0.197067 -0.460816,-0.197067 -0.170734,-6.18393e-006 -0.331014,0.0667555 -0.451291,0.187977 -0.120125,0.120999 -0.185504,0.28142 -0.184197,0.451728 0.00953975,1.20952 -0.291457,2.09625 -0.894436,2.63561 -0.569604,0.509531 -1.23614,0.551421 -1.50069,0.545462zm0.311831 1.30609c-0.113158,0 -0.25053,-0.0274154 -0.369133,-0.130019 -0.24636,-0.213216 -0.301564,-0.660794 -0.163907,-1.33024 0.0128708,-0.0626845 0.07141,-0.104935 0.135039,-0.0975165 0.00794017,0.000871934 0.796777,0.0846457 1.42543,-0.480015 0.545977,-0.490413 0.818301,-1.3138 0.809504,-2.44741 -0.00188816,-0.236488 0.088861,-0.459219 0.255605,-0.627271 0.166896,-0.168203 0.389334,-0.26084 0.626251,-0.26084 0.243754,-2.06131e-006 0.470706,0.0970795 0.63905,0.273348 0.167333,0.17517 0.253354,0.404532 0.242225,0.645885 -0.0292253,0.634614 -0.166016,1.57188 -0.651702,2.4336 -0.575409,1.02082 -1.49349,1.68932 -2.72854,1.98696 -0.0261745,0.00857711 -0.111987,0.033521 -0.219814,0.033521z"/>
  <path class="fil0" d="M18.3562 14.1113l-13.6757 0c-0.141946,0.0655208 -0.276912,0.123336 -0.404969,0.173948 -0.717509,0.284469 -1.22429,0.348539 -1.56374,0.333267 -0.445354,-0.019636 -0.834299,-0.329268 -0.921612,-0.766232 -0.10515,-0.527576 0.248493,-1.01762 0.623967,-1.37314 0.36673,-0.34745 0.753881,-0.566475 0.753881,-0.566475 -0.0301755,-0.337272 -0.013817,-0.668355 0.0258138,-0.971083 0.0738856,-0.564302 0.228119,-1.02889 0.309998,-1.24828 0.0327254,-0.0873398 0.0538126,-0.135694 0.0538126,-0.135694 2.06131e-006,-2.06131e-006 2.1172,0.0727911 4.12226,-0.265276 0.991449,-0.167327 1.95525,-0.435075 2.62179,-0.861859 0.625022,-0.400243 1.21483,-0.592 1.7307,-0.666537 1.14722,-0.16522 1.9298,0.249932 1.9298,0.249932 -0.000713214,-0.266367 0.0134521,-0.559568 0.0563542,-0.852478 0.10516,-0.722895 0.383154,-1.44441 1.03333,-1.75586 0.0443656,-0.0210955 0.090607,-0.0403584 0.138238,-0.0574467 0.348186,-0.125956 0.610911,0.0232681 0.808776,0.338721 0.0902421,0.143323 0.166669,0.321272 0.23219,0.523501 0.136069,0.423507 0.221935,0.953266 0.274657,1.49575 0.0524336,0.537746 0.0727911,1.08823 0.0778804,1.5601 0.00510174,0.45696 0.142601,0.895019 0.386716,1.26508 0.183042,0.278289 0.426786,0.518409 0.719331,0.699258 0.00801438,0.00508731 0.0159978,0.00981802 0.0239978,0.0149095 0.754978,0.468225 1.30871,0.871747 1.55356,1.28726 0.411889,0.697803 -0.100788,1.57864 -0.911017,1.57864z"/>
  <path class="fil1" d="M14.9562 11.9126c0,1.64526 -2.32089,1.78532 -6.85569,1.78532 -3.23524,0 -4.21578,-2.68142 -4.54287,-4.14037 0.0327996,-0.0873398 0,0 0,0 2.06131e-006,-2.06131e-006 2.1172,0.0727911 4.12226,-0.265276l0.423152 1.27162 -0.0760644 0.157948c0,0 0.523571,0.844408 2.5879,-0.385698 2.06477,-1.23011 4.34129,-0.0684273 4.3413,1.57646z"/>
  <path class="fil1" d="M4.27549 14.2852c-0.717511,0.284471 -1.22429,0.348541 -1.56374,0.333269 -0.445354,-0.019636 -0.834299,-0.329268 -0.921612,-0.766232 -0.10515,-0.527576 0.248493,-1.01762 0.623967,-1.37314 0.555577,0.109874 1.34799,0.508303 1.86138,1.80611z"/>
  <path class="fil1" d="M18.3562 14.1113l-0.715316 0c-0.964469,-1.24137 -0.355098,-2.33906 0.0727766,-2.8659 0.698545,0.433327 1.22465,0.811029 1.4932,1.19411 0.0221838,0.030899 0.0421744,0.0622475 0.0603552,0.0931527 0.0757058,0.128418 0.120059,0.262658 0.137149,0.396606 0.0764355,0.595199 -0.38672,1.18204 -1.04817,1.18203z"/>
  <path class="fil5" d="M18.8243 13.0213c0.166529,0.0914129 0.245279,0.268049 0.175832,0.394506 -0.0693672,0.126453 -0.260696,0.154817 -0.427221,0.06341 -0.166521,-0.0914109 -0.245279,-0.26804 -0.175906,-0.394426 0.0694497,-0.126457 0.260694,-0.154891 0.427295,-0.0634904z"/>
  <path class="fil5" d="M19.4044 12.9292c-0.0894485,0.0705339 -0.239401,0.0745411 -0.373639,0.00109456 -0.166655,-0.0916974 -0.245207,-0.268185 -0.176125,-0.394788 0.059339,-0.107701 0.206667,-0.144057 0.352249,-0.0960612 0.0221838,0.030899 0.0421744,0.0622475 0.0603552,0.0931527 0.0757058,0.128418 0.120059,0.262658 0.13716,0.396602z"/>
  <path class="fil5" d="M18.3215 11.6609c0,0 -0.103987,0.366579 -0.381773,0.54343 -0.259735,0.165358 0.146745,0.856769 0.712496,0.3865 0.174098,-0.144716 0.221719,-0.399373 0.0998416,-0.590112 -0.0716244,-0.111989 -0.202373,-0.230591 -0.430565,-0.339817z"/>
  <path class="fil1" d="M16.5057 7.706c-1.14424,0.597749 -2.03606,-0.0636265 -2.4872,-0.544658 0.112424,-0.772054 0.421697,-1.54265 1.17157,-1.81331 0.8383,-0.302734 1.18175,0.986714 1.31564,2.35796z"/>
  <path class="fil5" d="M15.6031 6.14728c0,0.190007 -0.116934,0.344031 -0.261135,0.344031 -0.144273,-2.06131e-006 -0.261203,-0.154017 -0.261203,-0.344031 1.03066e-005,-0.189942 0.11693,-0.343959 0.261203,-0.343959 0.144215,-4.12262e-006 0.261131,0.154019 0.261135,0.343959z"/>
  <path class="fil5" d="M16.2311 6.21025c-0.0458786,0.098611 -0.128137,0.164132 -0.222308,0.164132 -0.144488,0 -0.261277,-0.153873 -0.261277,-0.344177 0,-0.185582 0.111696,-0.336905 0.251389,-0.343449 0.0902421,0.143323 0.166669,0.321272 0.232196,0.523495z"/>
  <path class="fil5" d="M16.3499 7.26118c0,0 -0.336179,-0.106168 -0.614182,0.0185436 -0.259956,0.116637 -0.587494,-0.549242 0.0637708,-0.747254 0.200353,-0.0609447 0.421406,0.0317772 0.506777,0.223028 0.0501785,0.112275 0.0752626,0.273711 0.0436338,0.505683z"/>
  <path class="fil2" d="M4.22881 14.1714c-0.0405109,-0.0951851 -0.0826153,-0.185283 -0.125954,-0.270436 0.04458,-0.0165812 0.0899515,-0.0340322 0.136273,-0.0523573 0.105523,-0.0416715 0.215827,-0.0883519 0.330725,-0.140128 0.0489458,-0.0220354 0.10195,-0.0338137 0.155544,-0.0338137l2.86569 -2.06131e-006c0.163182,0.0153444 0.333048,0.0232701 0.509389,0.0232701 0.84281,0 1.60941,-0.00479873 2.29863,-0.0232681l6.9612 -2.06131e-006c0.052784,0.103185 0.115613,0.207683 0.189641,0.31349l-12.8696 0c-0.0178901,0 -0.0355659,0.00385259 -0.0517822,0.0113434 -0.140565,0.0650818 -0.273711,0.122021 -0.399799,0.171903z"/>
  <path class="fil3" d="M8.10049 13.6979c-0.176347,0 -0.346218,-0.00792574 -0.509399,-0.0232681l2.80803 -2.06131e-006c-0.689226,0.0184693 -1.45583,0.0232701 -2.29863,0.0232701z"/>
  <path class="fil3" d="M2.80251 14.4972c-0.0300333,0 -0.058467,-0.000653435 -0.0853733,-0.00181601 -0.399591,-0.0175273 -0.731081,-0.291964 -0.806069,-0.667483 -0.00460085,-0.0229836 -0.00819577,-0.0459569 -0.0108342,-0.0688643 0.171349,0.248332 0.458794,0.408822 0.775092,0.422785 0.0303239,0.00137696 0.0619548,0.00210872 0.0949687,0.00210872 0.312839,-2.06131e-006 0.748274,-0.0658816 1.33257,-0.28302 0.0433452,0.0851507 0.0854434,0.175253 0.125948,0.270438 -0.65781,0.259968 -1.12306,0.325852 -1.4263,0.325852z"/>
  <path class="fil3" d="M18.3563 13.9881l-0.806302 0c-0.0740361,-0.105807 -0.136865,-0.210301 -0.189659,-0.313488l0.959524 -2.06131e-006c0.210526,0 0.400894,-0.0594832 0.560147,-0.159762 0.042698,-0.0154907 0.0790451,-0.0407954 0.104931,-0.0754811 0.132423,-0.108351 0.236626,-0.247388 0.304037,-0.402714 0.00415766,0.164268 -0.0367944,0.329705 -0.122965,0.480522 -0.168335,0.294873 -0.471071,0.470925 -0.809712,0.470925z"/>
  <path class="fil6" d="M18.88 13.5149c0.0366501,-0.0230516 0.0716903,-0.0482821 0.104921,-0.075479 -0.0258777,0.0346857 -0.0622433,0.0599924 -0.104921,0.075479z"/>
  <path class="fil2" d="M16.5026 9.70038c-0.15781,-0.417117 -0.310231,-1.01362 -0.374151,-1.83811 0.0850888,-0.0260364 0.171905,-0.0588277 0.260259,-0.0990419 0.0413911,0.444816 0.0655909,0.947885 0.0716264,1.50425 0.00160576,0.147031 0.0159257,0.291746 0.0422651,0.432894z"/>
  <path class="fil3" d="M16.1285 7.86227c-0.00508938,-0.0651518 -0.00960777,-0.131833 -0.0135346,-0.199898 -0.0089296,-0.156713 -0.0210151,-0.304256 -0.036141,-0.442856 0.116495,0.00341353 0.212266,0.0255974 0.251678,0.036141 0.0221838,0.159611 0.0415952,0.328833 0.0582485,0.507575 -0.0883395,0.04021 -0.175178,0.0730096 -0.260259,0.0990419zm0.0906193 -1.23106c-0.0703237,-0.0677697 -0.163775,-0.108707 -0.262089,-0.116124 -0.0147507,-0.0578156 -0.0304703,-0.113152 -0.0470494,-0.16609 0.0304827,0.0163544 0.0638491,0.0253789 0.0988234,0.0253789 0.0480079,0 0.0929342,-0.0170161 0.131477,-0.0467588 0.0280029,0.0941648 0.0543197,0.19554 0.0788266,0.3036zm-0.466918 -0.665818c-0.135768,-0.25175 -0.307679,-0.415142 -0.515511,-0.503059 0.0666133,-0.023567 0.129442,-0.0353412 0.18907,-0.0353412 0.0895907,-6.18393e-006 0.171907,0.0265435 0.248769,0.079917 0.0738939,0.0512648 0.142966,0.125876 0.207176,0.222811 -0.0663144,0.0486407 -0.114823,0.134311 -0.129504,0.235672z"/>
  <path class="fil6" d="M16.0088 6.37438c-0.034964,0 -0.0683572,-0.00901823 -0.0988254,-0.0253789 -0.0456642,-0.145658 -0.0982421,-0.27313 -0.1578,-0.383591 0.0147013,-0.101375 0.0631936,-0.187031 0.129512,-0.235678 0.098038,0.14812 0.184413,0.348392 0.258587,0.597889 -0.0385403,0.0297427 -0.083481,0.0467588 -0.131475,0.0467588z"/>
  <path class="fil6" d="M16.3305 7.25565c-0.0394143,-0.0105457 -0.135197,-0.0327192 -0.251692,-0.0361368 -0.0291552,-0.266734 -0.0698104,-0.500812 -0.121803,-0.704422 0.0983245,0.00741041 0.191758,0.0483563 0.262077,0.11613 0.0426176,0.187827 0.0797727,0.396242 0.111418,0.624429z"/>
  <path class="fil7" d="M14.5818 8.56429c0,0 -0.685596,-0.5267 -2.02449,-0.5267 -0.215094,-6.18393e-006 -0.44729,0.0135985 -0.696061,0.0451592 0.0447243,-0.0658135 0.0805725,-0.127694 0.109153,-0.183106 0.221139,-0.0370129 0.425329,-0.0511226 0.608361,-0.0511226 0.102255,-4.12262e-006 0.198014,0.00436586 0.286221,0.0117103 0.633968,0.0522769 1.03566,0.260259 1.03944,0.262223 0.0180365,0.00959334 0.0378869,0.0143983 0.0576652,0.0143983 0.022122,-2.06131e-006 0.0441409,-0.00596543 0.0637027,-0.0177438 0.0195618,-0.0117825 0.0350505,-0.0284337 0.0453035,-0.0479234 0.204352,0.12064 0.382136,0.281058 0.510708,0.493105z"/>
  <path class="fil2" d="M4.12497 11.2061c-0.236335,-0.0488634 -0.456747,-0.107619 -0.660576,-0.172194 0.199104,0.0553379 0.415441,0.105587 0.648066,0.1466 0.00414942,0.00850291 0.00829059,0.0170161 0.012508,0.0255974zm4.08809 -0.325052c-0.0467629,-0.0264013 -0.0834851,-0.0537384 -0.111556,-0.078101 0.829653,-0.309491 1.45277,-0.713148 1.88021,-1.05413 0.642908,-0.512817 0.974064,-0.977772 1.05107,-1.09274 0.292115,-0.17227 0.499577,-0.366792 0.645959,-0.54728 0.0618888,-0.00974382 0.122603,-0.0183972 0.182523,-0.0260323 -0.140775,0.207246 -0.369191,0.453763 -0.73373,0.66341 8.24524e-006,0 -0.360175,0.575275 -1.16568,1.18538 -0.443363,0.335808 -1.0214,0.682244 -1.7488,0.949485z"/>
  <path class="fil3" d="M5.55185 11.3497c-0.525241,0 -1.00184,-0.0557749 -1.42688,-0.143618 -0.00421126,-0.00858536 -0.00836274,-0.0170903 -0.012508,-0.0255974 0.379813,0.066972 0.803103,0.109513 1.26588,0.109513 0.35429,-2.06131e-006 0.731837,-0.0249419 1.13055,-0.0828255 0.597017,-0.0866822 1.12735,-0.230663 1.59261,-0.404244 0.0280709,0.0243606 0.0647911,0.0517039 0.11155,0.078101 -0.453981,0.166814 -0.966136,0.302873 -1.53989,0.386135 -0.394931,0.0574446 -0.769143,0.0825369 -1.12132,0.0825349z"/>
  <path class="fil8" d="M11.6787 8.10878c0.0498878,-0.0615837 0.0927157,-0.121504 0.129366,-0.178369 0.0550555,-0.0116382 0.109151,-0.0218891 0.16231,-0.0307609 -0.0285801,0.055406 -0.0644304,0.117297 -0.109153,0.183106 -0.0599161,0.00763509 -0.12064,0.0162885 -0.182523,0.026024z"/>
  <path class="fil4" d="M2.95405 14.6538l-0.00959746 -0.0188321 -0.0077093 -0.0163627c-0.00472452,-0.0108342 -0.00916459,-0.0215943 -0.0130914,-0.03214 -0.00785153,-0.0215263 -0.0143983,-0.0428299 -0.0202153,-0.0645726 -0.0108342,-0.0431989 -0.0176696,-0.0871172 -0.0215242,-0.131184 -0.00647252,-0.0880674 -0.000509144,-0.177071 0.0208708,-0.262223 0.00923673,-0.0426877 0.0221055,-0.0845715 0.0377405,-0.12493l0.0247996 -0.0598481c0.00879767,-0.0196381 0.0202132,-0.0382497 0.0301755,-0.0570117 0.0407233,-0.0751946 0.0948244,-0.1418 0.155763,-0.198521 0.00807415,-0.00756707 0.0207966,-0.00712595 0.0283595,0.000946142 0.00429371,0.00465032 0.00603552,0.0108342 0.00516358,0.0166533l-0.000290645 0.00203245c-0.00625402,0.0410139 -0.0167976,0.0784659 -0.0230516,0.116934 -0.00603346,0.0384641 -0.0135263,0.0752646 -0.016944,0.112712 -0.00537796,0.0367944 -0.00705381,0.0737372 -0.00981802,0.109734 -0.00217881,0.0178138 -0.000144292,0.0362853 -0.00109043,0.054029 -0.00058129,0.0178839 -0.00152743,0.0355576 -0.000218499,0.0533756 0.00196443,0.0708967 0.00879974,0.140202 0.0179623,0.208411 0.00385671,0.0342466 0.00989017,0.0679202 0.0149795,0.10166l0.00865544 0.0498095c0.00116464,0.00843488 0.0026158,0.0163647 0.00407109,0.0242183l0.00174593 0.0115598c0.000583351,0.00356401 0.00138108,0.00792986 0.000725581,0.00872759l-0.0868946 0.109076c-0.0288707,0.0362873 -0.0817392,0.0422527 -0.118099,0.013382 -0.00952326,-0.00763716 -0.0172346,-0.017381 -0.0224683,-0.027636z"/>
  <path class="fil4" d="M2.09254 14.4979l-0.0096222 -0.0188363 -0.0077093 -0.0164307c-0.00469154,-0.0107621 -0.00914191,-0.0215242 -0.0130831,-0.0320678 -0.00781443,-0.0215984 -0.0143488,-0.042832 -0.0201514,-0.0645747 -0.0108487,-0.043269 -0.0176984,-0.0871893 -0.0215386,-0.131184 -0.00653023,-0.0881375 -0.000515328,-0.177069 0.0208419,-0.262296 0.00927384,-0.0426135 0.0221199,-0.0845715 0.0377612,-0.12493l0.0247914 -0.0597759c0.0088018,-0.019634 0.0202153,-0.0382497 0.0301549,-0.0570818 0.0407686,-0.0751203 0.0948409,-0.14173 0.155757,-0.198523 0.00811538,-0.00756501 0.0208254,-0.00712595 0.0283884,0.00101829 0.00432669,0.00465444 0.00603552,0.0107642 0.00518626,0.0165791l-0.000319503 0.00203451c-0.00625402,0.0410881 -0.016777,0.078538 -0.023031,0.117006 -0.00604789,0.0384661 -0.0135263,0.0752626 -0.0169728,0.112642 -0.00537796,0.0368665 -0.00703113,0.0738073 -0.00979535,0.109732 -0.00218499,0.017886 -0.000195825,0.0363595 -0.00114197,0.0541032 -0.000564799,0.017886 -0.00152743,0.0354855 -0.00017315,0.0533735 0.00197267,0.0709008 0.00880592,0.140128 0.0179313,0.208413 0.00387114,0.0341745 0.0099046,0.0679161 0.0149795,0.10166l0.00872347 0.0497374c0.00113166,0.00843488 0.00255603,0.0164348 0.00404635,0.0242884l0.00173975 0.0115598c0.000564799,0.00349392 0.00134397,0.00785566 0.000688478,0.00872965l-0.086843 0.109074c-0.0289202,0.0362853 -0.0817763,0.0422527 -0.118084,0.0133841 -0.00960365,-0.00771136 -0.0172552,-0.017381 -0.0225239,-0.027636z"/>
  <path class="fil4" d="M3.29016 11.8975c0.000436998,0.0242802 -7.42072e-005,0.0506114 -0.00160164,0.0762809 -0.00159752,0.0258818 -0.0034898,0.0519224 -0.00632616,0.0780989 -0.00508731,0.0524233 -0.0117804,0.104717 -0.0256695,0.160055l-0.000360729 0.00145116c-0.00530994,0.0210913 -0.0266899,0.0338179 -0.0477049,0.0285821 -0.00814218,-0.00211697 -0.0150538,-0.00654672 -0.0201452,-0.0124359 -0.0395566,-0.0458188 -0.0658094,-0.0961333 -0.0885704,-0.146456 -0.0115619,-0.0252325 -0.0216706,-0.0507557 -0.0309052,-0.0764272 -0.00923261,-0.0258921 -0.0170883,-0.0511927 -0.0232701,-0.0786081l-0.000216438 -0.00109043c-0.0150538,-0.0667555 0.0269042,-0.133074 0.0936598,-0.148128 0.0667576,-0.0150538 0.133074,0.0269063 0.148056,0.0936618 0.00189228,0.00813805 0.0028343,0.016944 0.00305486,0.0250161z"/>
  <path class="fil4" d="M14.0125 7.90117c0.0375323,0.0182529 0.0667555,0.0363595 0.0984585,0.0558512 0.0308475,0.0196999 0.0606499,0.0407212 0.0900277,0.0621011 0.0586876,0.0429742 0.113586,0.0910419 0.165507,0.14209 0.05171,0.0512627 0.0990419,0.107623 0.140709,0.167471 0.041387,0.0602109 0.075848,0.125439 0.100425,0.193285 0.00575312,0.0157031 -0.00240143,0.033016 -0.0180344,0.0386887 -0.0112589,0.00414117 -0.0233423,0.00109043 -0.0314144,-0.00669308l-0.00217881 -0.00218087c-0.024509,-0.0240019 -0.0447243,-0.0495209 -0.0704659,-0.0711173 -0.0229754,-0.0233464 -0.0487211,-0.0442131 -0.0738094,-0.0650117 -0.0517698,-0.0402904 -0.104061,-0.0786081 -0.159471,-0.112857 -0.0551133,-0.0345455 -0.111989,-0.0659558 -0.169217,-0.0960633 -0.0287161,-0.0149816 -0.0578115,-0.0290872 -0.0868987,-0.0425393 -0.0280606,-0.0139674 -0.0597759,-0.0274154 -0.084353,-0.0381033l-0.00260962 -0.0011667c-0.0623856,-0.0272753 -0.0908337,-0.0999138 -0.0636388,-0.162306 0.0272835,-0.0623979 0.099988,-0.0908255 0.162382,-0.0636285 0.00139138,0.000649313 0.00320122,0.00152743 0.00458229,0.00217881z"/>
  <path class="fil4" d="M3.63979 9.68306c-0.105152,0.27117 -0.43835,1.22546 -0.349196,2.21864 0.00429371,0.0481316 -0.0199988,0.0944616 -0.062029,0.118241 -0.0150517,0.00857299 -1.50577,0.865423 -1.3175,1.808 0.0749905,0.375517 0.406474,0.649958 0.806069,0.667483 0.350361,0.0152702 0.965629,-0.0581764 1.91148,-0.495941 0.0162205,-0.0074908 0.0338879,-0.0113434 0.051776,-0.0113434l13.6759 0c0.338653,0 0.641369,-0.176052 0.809712,-0.470925 0.166016,-0.290731 0.164196,-0.635413 -0.00494508,-0.922144 -0.252904,-0.428749 -0.887893,-0.858804 -1.53632,-1.2597 -0.719985,-0.445043 -1.15528,-1.21811 -1.16437,-2.06789 -0.0225281,-2.08891 -0.301636,-3.42446 -0.785869,-3.76056 -0.129285,-0.0897392 -0.274002,-0.103768 -0.442636,-0.0429021 -0.952241,0.343878 -1.14902,1.5761 -1.14648,2.54929 0.000158721,0.0432607 -0.0224683,0.083481 -0.0595554,0.105805 -0.0370005,0.022324 -0.0831924,0.0237071 -0.121368,0.00334551 -0.0037722,-0.00196443 -0.405478,-0.209938 -1.03944,-0.262223 -0.583347,-0.0482903 -1.49015,0.0297427 -2.49701,0.6741 -1.89773,1.21447 -6.05563,1.16509 -6.7282,1.14873zm-0.831972 5.06077c-0.034395,0 -0.0681387,-0.000727643 -0.101443,-0.00218087 -0.513316,-0.0225466 -0.939719,-0.378428 -1.03698,-0.865423 -0.199615,-0.999589 1.05458,-1.83738 1.36952,-2.03023 -0.0840603,-1.20306 0.38548,-2.29136 0.405913,-2.33804 0.0202895,-0.0462558 0.0676275,-0.0751904 0.117076,-0.0736651 0.0470515,0.00167378 4.71368,0.146456 6.67323,-1.10758 1.0702,-0.684864 2.03881,-0.764707 2.66295,-0.711041 0.428612,0.0367944 0.755254,0.138238 0.94287,0.210594 0.0245152,-1.01813 0.283748,-2.22446 1.30711,-2.59401 0.245644,-0.0887951 0.470123,-0.0644283 0.6669,0.0722098 0.707126,0.490777 0.875241,2.42458 0.891746,3.96039 0.00821845,0.764853 0.39981,1.46048 1.04758,1.86087 0.780495,0.482553 1.35453,0.895745 1.619,1.3442 0.214673,0.363807 0.217136,0.801069 0.00668895,1.16953 -0.212773,0.372609 -0.59549,0.595055 -1.02373,0.595055l-13.6489 0c-0.736634,0.338284 -1.37496,0.509321 -1.89955,0.509321z"/>
  <path class="fil0" d="M10.6105 11.3276c-0.0647272,0.765872 -0.307389,1.59865 -1.05726,1.59865 -0.885564,0 -1.08241,-0.802957 -1.10896,-1.38434 -0.0149074,-0.329635 0.0250882,-0.588003 0.0250882,-0.588003 2.06131e-006,-6.18393e-006 0.821572,-0.868185 2.12258,-0.881128 4.12262e-006,-2.06131e-006 0.0738794,0.603197 0.0185497,1.25482z"/>
  <path class="fil1" d="M10.6105 11.3276c-0.0647272,0.765872 -0.307389,1.59865 -1.05726,1.59865 -0.885564,0 -1.08241,-0.802957 -1.10896,-1.38434 0.465693,-0.308912 1.25665,-0.639633 2.16622,-0.214308z"/>
  <path class="fil2" d="M10.6151 10.3361c-0.0108384,-0.163035 -0.02313,-0.263306 -0.02313,-0.263306 -0.0789668,0.000725581 -0.156346,0.00472452 -0.231683,0.0114155 0.00727849,-0.112574 0.101517,-0.182451 0.197432,-0.182451 0.0571601,-4.12262e-006 0.114895,0.0248697 0.155107,0.080354 0.0448005,0.0618084 0.0848642,0.1394 0.113442,0.236772 -0.0706061,0.0363553 -0.141146,0.0754811 -0.211394,0.117293l0.000224683 -7.83298e-005z"/>
  <path class="fil3" d="M9.69782 12.9403c-0.0624598,0 -0.128131,-0.00486675 -0.197214,-0.0150476 0.0172367,0.000649313 0.03483,0.00094408 0.0526479,0.00094408 0.749874,0 0.992533,-0.832772 1.05725,-1.59864l6.18393e-006 -6.18393e-006c0.0327955,-0.385914 0.0202091,-0.754811 0.00457405,-0.991511 0.0700351,-0.0417436 0.140565,-0.0808611 0.211175,-0.117221 0.0213057,0.072352 0.036141,0.155689 0.0418858,0.251531 0.0370129,0.622761 0.0451571,2.46996 -1.17033,2.46996zm-0.879231 -0.300479c-0.0289449,-0.0278483 -0.0551277,-0.0583145 -0.0775259,-0.0914748 0.0239318,0.0319173 0.0497394,0.0625381 0.0775259,0.0914748z"/>
  <path class="fil2" d="M10.6105 11.3276c-0.11337,-0.0530128 -0.224926,-0.0943091 -0.334147,-0.125289 0.0578136,-0.415441 0.0773713,-0.829063 0.083479,-1.10881 8.03911e-005,-0.00312907 0.000218499,-0.00625402 0.000434937,-0.00930888 0.075343,-0.0066972 0.15271,-0.0106879 0.231683,-0.0114155 4.12262e-006,-2.06131e-006 0.0122875,0.100279 0.0231238,0.263312 0.0156412,0.236698 0.0282152,0.605599 -0.00458023,0.991517l6.18393e-006 -6.18393e-006z"/>
  <path class="fil3" d="M9.55326 12.9262c-0.017818,0 -0.0354154,-0.000290645 -0.05265,-0.00094408 -0.000360729,-7.83298e-005 -0.000799789,-7.42072e-005 -0.00116464,-0.000146353 2.06131e-006,-6.18393e-006 -0.437037,-0.0505392 -0.680863,-0.285273 -0.0277741,-0.028949 -0.053592,-0.0595575 -0.0775177,-0.091481 -0.000356607,-0.000511205 -0.000653435,-0.00094408 -0.00094408,-0.00138108 0,-4.12262e-006 0.176341,0.0474844 0.405404,0.0474844 0.340834,0 0.798523,-0.105005 0.966357,-0.627195 0.0748297,-0.232708 0.127476,-0.499287 0.164491,-0.765 0.109223,0.0309794 0.22077,0.0722819 0.334141,0.125295l6.18393e-006 -6.18393e-006c-0.0647272,0.765872 -0.307389,1.59865 -1.05726,1.59865z"/>
  <path class="fil4" d="M8.49143 10.9572c0.0138829,0.248557 0.0300993,0.493037 0.0690024,0.729591 0.0186239,0.118237 0.042395,0.234443 0.0744648,0.346504 0.0313422,0.112055 0.0727911,0.219901 0.127764,0.317269 0.0547587,0.097298 0.12326,0.183615 0.205067,0.251389 0.0815207,0.0684273 0.176706,0.116423 0.279021,0.148418 0.102612,0.030899 0.215465,0.0410139 0.325708,0.0411561 0.0538105,-0.00044112 0.106021,-0.00799789 0.156416,-0.0197783 0.050399,-0.0117825 0.0988234,-0.0293057 0.144127,-0.0531571 0.183912,-0.091481 0.319889,-0.278584 0.41057,-0.489759 0.0911202,-0.21256 0.146236,-0.447583 0.181867,-0.685734 0.0357122,-0.238811 0.0493746,-0.482487 0.0557749,-0.726748 0.00742484,-0.244051 0.00901823,-0.490777 0.0126544,-0.73642l7.83298e-005 -0.00218705c0.000507082,-0.0325027 0.0271907,-0.0584608 0.0596956,-0.0579517 0.0277081,0.000358668 0.0506856,0.0199968 0.0565026,0.045959 0.111115,0.495349 0.112568,1.00293 0.0550494,1.50971 -0.0319936,0.253057 -0.0820999,0.508084 -0.183471,0.754166 -0.0510463,0.122524 -0.114531,0.243461 -0.200776,0.353482 -0.0850023,0.109806 -0.194522,0.209503 -0.325269,0.275387 -0.129941,0.067409 -0.276475,0.0986049 -0.416968,0.101151 -0.137656,-0.000224683 -0.274294,-0.012943 -0.410059,-0.0539569 -0.134814,-0.041892 -0.262733,-0.113733 -0.369265,-0.207539 -0.106968,-0.093734 -0.191323,-0.20812 -0.254951,-0.328686 -0.12682,-0.242596 -0.181942,-0.505104 -0.193066,-0.762236 -0.00283224,-0.0644304 -0.00254572,-0.128712 0.000509144,-0.192704 0.00254984,-0.0639934 0.00712595,-0.127622 0.0154145,-0.190886 0.0154248,-0.126606 0.039705,-0.251315 0.0802097,-0.373192 0.00393298,-0.0118546 0.0166533,-0.0182529 0.0284337,-0.0143261 0.00901617,0.0030528 0.0149053,0.0111991 0.0154145,0.020071l8.03911e-005 0.0010121z"/>
  <path class="fil4" d="M9.18675 12.8733c0.00211078,-0.0215964 0.00748874,-0.0511844 0.0114877,-0.0775094l0.013382 -0.0820319c0.00959746,-0.0549752 0.0173768,-0.110527 0.0252304,-0.166737 0.00407315,-0.0282214 0.00603552,-0.0563583 0.00974382,-0.0849342l0.0032074 -0.0428382c0.00159339,-0.0143983 0.00268383,-0.0288625 0.00312082,-0.0432607 0.00458436,-0.0582547 0.00334345,-0.116351 0.00479873,-0.178161l6.18393e-006 -0.00175211c0.000360729,-0.0158453 0.0135201,-0.0283513 0.0294438,-0.0279905 0.00982421,0.000216438 0.0184714,0.00552637 0.0234165,0.0131615 0.0346177,0.05359 0.0639192,0.112133 0.0844993,0.173144 0.0217489,0.0607839 0.0372314,0.124058 0.0468309,0.187975 0.0105457,0.063913 0.0146889,0.128714 0.0132336,0.193433 -0.00130481,0.0322801 -0.00341765,0.064719 -0.00792574,0.0970073 -0.00486469,0.033084 -0.00989017,0.0626824 -0.0212336,0.0996974 -0.0199205,0.0650076 -0.088791,0.101588 -0.153873,0.0815887 -0.0569313,-0.0174572 -0.0920623,-0.0725004 -0.0864617,-0.129659l0.00109249 -0.0111331z"/>
  <path class="fil4" d="M9.83032 12.7885c0.00211078,-0.0215964 0.00741247,-0.0511885 0.0114836,-0.0775135l0.0133862 -0.0820278c0.0095954,-0.0549752 0.0173006,-0.11053 0.0251542,-0.166739 0.00414942,-0.0282193 0.00610972,-0.0562841 0.00974382,-0.0849363l0.00327336 -0.042834c0.0016037,-0.0143983 0.00269001,-0.0288666 0.00312701,-0.0432649 0.00451427,-0.0582526 0.0032713,-0.116351 0.00472659,-0.178161l7.42072e-005 -0.00167378c0.000368975,-0.0159277 0.0135243,-0.0284317 0.0293757,-0.0280668 0.00981802,0.000210254 0.0184714,0.00552431 0.0234886,0.0131615 0.0346218,0.053658 0.0639192,0.112131 0.0844272,0.173142 0.0218169,0.0608623 0.0372314,0.124058 0.0468309,0.187977 0.0105477,0.0639151 0.014761,0.128712 0.0133078,0.193431 -0.00130275,0.0322842 -0.00349186,0.0646468 -0.00799995,0.0970053 -0.00479667,0.033082 -0.00989017,0.0626845 -0.0211614,0.0996994 -0.0199184,0.0650034 -0.0887889,0.101588 -0.153873,0.0815887 -0.0570097,-0.0174531 -0.0921344,-0.0724984 -0.0864617,-0.129656l0.00109662 -0.0111311z"/>
  <path class="fil0" d="M4.52623 2.359c-3.17748,1.31512 -3.59491,4.61734 -3.59491,4.61734 -0.47789,-0.93763 -0.724536,-1.89264 -0.840924,-2.75007 -0.107483,-0.794099 -0.103558,-1.50469 -0.0677883,-2.04092 0.040041,-0.599136 0.557947,-1.05624 1.15689,-1.0174 1.13561,0.0732981 1.97882,0.377335 2.53475,0.660211 0.542993,0.275379 0.811975,0.530845 0.811977,0.530833z"/>
  <path class="fil2" d="M0.691085 6.12888c-0.224895,-0.593748 -0.36814,-1.18247 -0.454573,-1.74022 0.116495,0.0919736 0.258717,0.137945 0.400847,0.137945 0.00877294,-1.03066e-005 0.0175108,-0.000216438 0.0262797,-0.000507082 0.0536703,0.278145 0.127084,0.564803 0.225435,0.854368 -0.0814444,0.240256 -0.147437,0.489687 -0.197991,0.748419zm2.86101 -3.77214c-0.103189,-0.0583145 -0.223539,-0.11961 -0.360977,-0.179672 0.0995551,-0.0714966 0.19554,-0.13744 0.286656,-0.197723 0.0743948,0.0338818 0.144636,0.067846 0.210882,0.101515 0.0783195,0.0397627 0.150892,0.079043 0.21772,0.11715 -0.119618,0.0485006 -0.238079,0.101513 -0.354282,0.158729z"/>
  <path class="fil7" d="M3.47777 1.97934c-0.550042,-0.250513 -1.32353,-0.494117 -2.32384,-0.558691 -0.0237834,-0.00153155 -0.0473772,-0.00225301 -0.0708864,-0.00225301 -0.325976,-1.44292e-005 -0.622514,0.146236 -0.823384,0.379444 0.164833,-0.304996 0.487046,-0.50903 0.849439,-0.50903 0.0207409,-1.23679e-005 0.0416158,0.000655497 0.062567,0.00203657 1.0673,0.0689282 1.87372,0.348176 2.41867,0.615198 -0.0365738,0.0234103 -0.0741721,0.0478492 -0.112566,0.0732961z"/>
  <path class="fil9" d="M3.90638 2.198c-0.0668298,-0.0381075 -0.139404,-0.0773631 -0.217722,-0.117138 -0.0662423,-0.0336839 -0.136492,-0.0676275 -0.210882,-0.101515 0.038396,-0.0254634 0.0759902,-0.0498837 0.112568,-0.0733002 0.173072,0.0847817 0.319816,0.168343 0.440164,0.243534 -0.0415189,0.0156309 -0.0828977,0.0317792 -0.124128,0.0484202z"/>
  <path class="fil5" d="M3.93794 2.77437c0,0 -0.798597,-0.757866 -2.42439,-0.862943 -0.434034,-0.0279967 -0.809081,0.303163 -0.838117,0.737147 -0.0540228,0.807815 -0.00848642,2.16265 0.658226,3.47071 2.06131e-006,-8.24524e-006 0.30237,-2.39215 2.60428,-3.34491z"/>
  <path class="fil6" d="M1.03101 5.00756c-0.252212,-0.888765 -0.274115,-1.73033 -0.232635,-2.35077 0.0235773,-0.352325 0.317184,-0.623777 0.664167,-0.623777 0.0142416,-4.12262e-006 0.0286502,0.000436998 0.0430628,0.00138314 0.795565,0.0514112 1.38919,0.26513 1.78048,0.462707 -0.0479214,0.0270506 -0.0954078,0.0548309 -0.142601,0.083481 -0.350283,-0.138386 -0.807997,-0.260842 -1.37479,-0.29749 -0.0158721,-0.00102653 -0.0316452,-0.00152743 -0.0473318,-0.00152743 -0.38033,-6.18393e-006 -0.700765,0.297346 -0.726501,0.682172 -0.0309238,0.462401 -0.02636,1.11899 0.128247,1.83898 -0.0320699,0.0674069 -0.0627999,0.135766 -0.0921035,0.204845z"/>
  <path class="fil4" d="M1.46254 2.03301c-0.346985,0 -0.640594,0.271462 -0.664169,0.623781 -0.0526562,0.787608 -0.00312701,1.93177 0.489998,3.07628 0.0645891,-0.248042 0.178714,-0.598691 0.374282,-0.98468 0.322828,-0.637159 0.934716,-1.48557 2.03807,-2.00398 -0.297488,-0.211103 -1.02969,-0.634688 -2.19512,-0.710023 -0.0144106,-0.000960571 -0.0288254,-0.00138314 -0.0430628,-0.00138314zm-0.128964 4.20945c-0.0456993,0 -0.0884199,-0.025519 -0.109719,-0.0672585 -0.663235,-1.30123 -0.731198,-2.64048 -0.671404,-3.53484 0.0335911,-0.502061 0.46806,-0.884401 0.969061,-0.851896 1.65128,0.106751 2.46732,0.864332 2.50128,0.896472 0.0302539,0.0287202 0.0439224,0.0708287 0.0362873,0.111913 -0.00756295,0.0410098 -0.0354875,0.075411 -0.0740299,0.0913367 -0.923737,0.38234 -1.62984,1.043 -2.09846,1.96347 -0.351773,0.691038 -0.429954,1.2773 -0.430696,1.28312 -0.00689302,0.0536662 -0.0478987,0.0965703 -0.101165,0.105807 -0.00705999,0.0012306 -0.0141653,0.00189022 -0.0211594,0.00188404z"/>
  <path class="fil0" d="M5.89378 2.16048c3.42024,0.357339 4.75942,3.40461 4.75942,3.40461 0.191547,-1.03479 0.156491,-2.02055 0.0242884,-2.87572 -0.122743,-0.791836 -0.328542,-1.47197 -0.515354,-1.97591 -0.208695,-0.562995 -0.835245,-0.853985 -1.39838,-0.646483 -1.06794,0.393117 -1.78989,0.924411 -2.24242,1.35367 -0.442267,0.418407 -0.62756,0.739837 -0.627554,0.739831z"/>
  <path class="fil2" d="M10.6426 4.68432c-0.122025,-0.233643 -0.256266,-0.454041 -0.402648,-0.661217 0.0119329,-0.305577 0.000871934,-0.601309 -0.0268341,-0.883239 0.146312,-0.0371592 0.279604,-0.124421 0.37043,-0.253205 0.0757738,0.559347 0.105803,1.16459 0.0590462,1.79767zm-3.81539 -2.80309c-0.128055,-0.0218107 -0.256116,-0.0388928 -0.3849,-0.0514008 0.0533055,-0.0555709 0.111696,-0.113805 0.175397,-0.17416 0.053961,-0.0511308 0.111624,-0.103696 0.17336,-0.15729 0.104502,0.0319091 0.215248,0.0677738 0.331016,0.10806 -0.114747,0.0967105 -0.212556,0.189575 -0.294873,0.274791z"/>
  <path class="fil7" d="M6.79105 1.49838c-0.0445037,-0.0135964 -0.087851,-0.0264569 -0.13003,-0.0386022 0.445841,-0.410362 1.13921,-0.906797 2.14512,-1.27723 0.109229,-0.040144 0.221137,-0.0591926 0.331378,-0.0591926 0.257713,-1.23679e-005 0.505973,0.104205 0.687189,0.286001 -0.174667,-0.112286 -0.379809,-0.174306 -0.590693,-0.174306 -0.124268,-6.18393e-006 -0.250585,0.0215242 -0.373918,0.066974 -0.940685,0.346284 -1.61297,0.79983 -2.06905,1.19635z"/>
  <path class="fil9" d="M6.44228 1.82983c-0.0444295,-0.00428546 -0.089298,-0.00806385 -0.133802,-0.0111909 0.0938144,-0.106401 0.210594,-0.228261 0.352538,-0.358866 0.0421827,0.0121308 0.0855176,0.0250161 0.130021,0.0386145 -0.0617321,0.05359 -0.119403,0.10617 -0.17336,0.15729 -0.0636966,0.0603407 -0.122096,0.118604 -0.175397,0.174152z"/>
  <path class="fil5" d="M6.57587 2.39143c0,0 0.550187,-0.953688 2.07902,-1.5166 0.408098,-0.150323 0.861859,0.0605737 1.01311,0.468379 0.281501,0.759094 0.623052,2.07095 0.355739,3.51456 2.06131e-006,-2.06131e-006 -0.970065,-2.20744 -3.44787,-2.46633z"/>
  <path class="fil6" d="M9.99786 3.70597c-0.047775,-0.0578878 -0.0966487,-0.114675 -0.146607,-0.170233 -0.0564985,-0.734239 -0.238807,-1.36507 -0.399878,-1.79956 -0.109078,-0.294085 -0.388536,-0.477325 -0.685225,-0.477325 -0.0831863,-1.03066e-005 -0.16769,0.0143983 -0.250227,0.0447964 -0.532952,0.196268 -0.936903,0.443874 -1.23345,0.676065 -0.0537342,-0.0141117 -0.107623,-0.0273433 -0.161654,-0.0397771 0.318151,-0.300112 0.826155,-0.673156 1.57661,-0.949485 0.0752688,-0.0277865 0.152417,-0.0408675 0.228336,-0.0408675 0.270953,-8.24524e-006 0.526844,0.167253 0.626688,0.436456 0.216196,0.582982 0.434493,1.39612 0.445406,2.31994z"/>
  <path class="fil4" d="M6.79417 2.29516c1.2056,0.183185 2.03357,0.822671 2.52434,1.34188 0.29728,0.314426 0.506413,0.618181 0.638905,0.837645 0.147328,-1.23754 -0.13053,-2.34852 -0.404969,-3.08864 -0.127832,-0.344692 -0.51143,-0.522264 -0.855023,-0.395588 -1.10045,0.405258 -1.67951,1.01828 -1.90326,1.30471zm3.22958 2.68585c-0.0484305,0 -0.0929363,-0.028578 -0.112789,-0.073663 -0.0023231,-0.00531406 -0.243971,-0.545171 -0.777724,-1.10765 -0.711039,-0.749233 -1.57574,-1.18182 -2.57016,-1.28573 -0.041523,-0.00436586 -0.0780268,-0.0293799 -0.0969352,-0.0665391 -0.0189764,-0.0371592 -0.0178159,-0.0814444 0.00298272,-0.117585 0.0234206,-0.0405027 0.590328,-0.99886 2.14316,-1.57072 0.470853,-0.173441 0.996316,0.0694456 1.17128,0.541245 0.3116,0.840392 0.627269,2.14367 0.36141,3.57978 -0.00988605,0.053223 -0.0532313,0.093734 -0.10697,0.099988 -0.00479255,0.000577167 -0.00952532,0.000871934 -0.0142498,0.000871934z"/>
  <path class="fil0" d="M11.4794 7.18613c0,0 0.242004,0.175038 0.412747,0.270081 0,0 -0.139984,0.644141 -0.94643,1.10794 0,-2.06131e-006 -0.360103,0.575203 -1.16575,1.1856 -0.719907,0.545237 -1.79556,1.11884 -3.28877,1.33555 -1.4932,0.216767 -2.68753,-0.0272691 -3.53274,-0.34534 -0.945991,-0.356108 -1.45476,-0.805138 -1.45476,-0.805138 -0.905031,-0.215401 -1.22236,-0.793141 -1.22236,-0.793141 0.136611,-0.139695 0.318914,-0.376247 0.318914,-0.376247 -0.291816,-0.241208 -0.469202,-0.659046 -0.469202,-0.659046 0.432399,-0.222809 0.560942,-0.501684 0.560942,-0.501684 -0.0141097,-0.811328 0.0966136,-1.51094 0.291863,-2.11298 0.3003,-0.924848 0.799467,-1.62046 1.35025,-2.14061 1.59652,-1.50798 3.98416,-1.85461 5.94348,-0.862731 1.11609,0.564797 2.23311,1.62751 2.78381,3.61105 6.18393e-006,0 0.20252,0.230881 0.680424,0.321488 4.12262e-006,-6.18393e-006 -0.0512648,0.451002 -0.262436,0.765212z"/>
  <path class="fil1" d="M9.77992 9.74975c-0.719913,0.545243 -1.79557,1.11885 -3.28877,1.33555 -1.4932,0.216767 -2.68753,-0.0272691 -3.53274,-0.34534 0.153512,-1.58868 1.37264,-2.92765 3.02283,-3.16718 1.6502,-0.239535 3.19976,0.697515 3.79867,2.17697z"/>
  <path class="fil10" d="M3.63485 2.48843c0,0 0.0559914,0.858456 0.517607,1.77871 0.0172387,0.034395 -0.019197,0.0708287 -0.0534477,0.0533756 -0.236764,-0.120931 -0.806449,-0.505248 -0.998787,-1.46978 2.06131e-006,0 0.380534,-0.277131 0.534628,-0.362298z"/>
  <path class="fil10" d="M5.16542 1.95243c0,0 -0.253135,0.0153568 -0.530917,0.133816 6.18393e-006,-1.03066e-005 0.364827,2.08142 0.892036,2.56892 0.0184714,0.0170738 0.0482841,0.0127987 0.061155,-0.00887188 0.366798,-0.617249 0.124713,-2.71647 0.124713,-2.71647 -0.300034,-0.0346135 -0.546987,0.0226146 -0.546987,0.0226023z"/>
  <path class="fil10" d="M6.78516 2.03111c0,0 0.190442,0.838966 0.00951913,1.85252 -0.0067611,0.0378766 0.0385424,0.0624639 0.0663928,0.0359225 0.192632,-0.183259 0.629524,-0.713661 0.539717,-1.69303 4.12262e-006,-1.44292e-005 -0.443656,-0.157581 -0.615629,-0.195406z"/>
  <path class="fil2" d="M2.97296 10.6136c-0.0359987,-0.0136706 -0.0709751,-0.0274072 -0.105009,-0.041152 -0.825656,-0.332834 -1.27827,-0.726095 -1.28264,-0.729947 -0.0151609,-0.0133841 -0.0333706,-0.022761 -0.0530128,-0.0274876 -0.649636,-0.154675 -0.978541,-0.508956 -1.09387,-0.661085 0.124029,-0.138091 0.252989,-0.304981 0.259381,-0.313342 0.0405851,-0.0525779 0.0321338,-0.127913 -0.0190671,-0.170235 -0.181861,-0.150315 -0.318289,-0.381699 -0.386207,-0.512739 0.382058,-0.228263 0.505792,-0.489394 0.511298,-0.501247 0.00774022,-0.0168718 0.0116134,-0.0351948 0.0112919,-0.0537404 -0.00984276,-0.560005 0.0401708,-1.08568 0.149488,-1.57545 0.0102035,1.06619 0.299513,3.07621 2.16454,3.91909 -0.0730075,0.215022 -0.125658,0.438202 -0.156198,0.667337zm6.75708 -0.980904c-0.0943895,-0.211025 -0.208415,-0.40998 -0.339453,-0.595342 1.54832,-1.33846 1.25417,-3.34767 0.960754,-4.37285 0.244123,0.43856 0.441473,0.928179 0.591275,1.4679 0.00501723,0.0178839 0.0138891,0.034395 0.0261065,0.0483563 0.00865544,0.00981802 0.201576,0.22499 0.632723,0.335233 -0.0278483,0.144925 -0.0927899,0.405551 -0.224411,0.601381 -0.037083,0.0551153 -0.0237772,0.129729 0.0301075,0.168634 0.00850703,0.00617569 0.17954,0.129512 0.337705,0.226664 -0.067477,0.178957 -0.282076,0.611927 -0.860696,0.944831 -0.0174511,0.0100283 -0.0322142,0.0242884 -0.0429763,0.0413045 -0.00312289,0.00501311 -0.325271,0.510774 -1.0222,1.0646 -0.0287202,0.0228311 -0.0583928,0.045959 -0.0889311,0.0692971z"/>
  <path class="fil3" d="M5.37842 11.0435c-1.01472,0 -1.83171,-0.211167 -2.40546,-0.429905 0.0305424,-0.229141 0.0831883,-0.452307 0.156198,-0.667337 0.534774,0.241715 1.19913,0.387516 2.02361,0.387516 0.371743,-2.06131e-006 0.776053,-0.0296684 1.21571,-0.0935155 1.41482,-0.205356 2.3779,-0.646103 3.02211,-1.20291 0.131038,0.185359 0.245061,0.384317 0.339448,0.595346 -0.652792,0.49892 -1.72663,1.10852 -3.25662,1.3306l4.12262e-006 -4.12262e-006c-0.386502,0.0561377 -0.751985,0.0802138 -1.095,0.0802056z"/>
  <path class="fil7" d="M0.991101 5.91392c0.238042,-0.972537 0.715256,-1.80058 1.42746,-2.47315 0.216335,-0.204346 0.447649,-0.386863 0.690601,-0.546989 0.0119288,0.0556286 0.0251604,0.109297 0.0394865,0.160999 -0.271891,0.173711 -0.530118,0.374282 -0.770314,0.601235 -0.550797,0.520077 -1.04997,1.21571 -1.35027,2.14054 -0.0125513,0.0386784 -0.0248924,0.0778083 -0.0369696,0.117367zm9.14166 -1.60971c-0.537833,-0.713875 -1.17935,-1.19141 -1.81092,-1.51101 -0.294945,-0.14929 -0.599345,-0.268185 -0.909489,-0.357411 -0.000939958,-0.0536662 -0.00356401,-0.108862 -0.00792574,-0.165581 0.278516,0.0844911 0.552151,0.193722 0.817646,0.328033 0.78456,0.397033 1.4231,0.967884 1.91068,1.70598zm-6.41282 -1.27447c-0.0424671,-0.195833 -0.0645767,-0.35079 -0.0754831,-0.44387 0.324836,-0.161446 0.664791,-0.287019 1.01319,-0.375736 0.0186198,0.0960612 0.0479935,0.241934 0.087045,0.41624 -0.134748,0.0972217 -0.318289,0.19394 -0.528518,0.272402 -0.17685,0.0660238 -0.347885,0.109878 -0.496232,0.130967zm3.11025 -0.725808c-0.285419,-0.0475627 -0.573389,-0.0711874 -0.860628,-0.0711874 -0.0759119,-2.06131e-006 -0.151762,0.00167378 -0.227536,0.00494508 -0.00602933,-0.0719315 -0.0117804,-0.133655 -0.016507,-0.182595 0.066467,-0.00256015 0.133074,-0.00385465 0.199757,-0.00385465 0.293201,-1.44292e-005 0.587276,0.0251604 0.87844,0.0759902 0.00778145,0.0448603 0.0171604,0.104424 0.0264734,0.176702z"/>
  <path class="fil11" d="M3.14865 3.05478c-0.0143282,-0.0517018 -0.0275638,-0.105366 -0.0394885,-0.160997 0.172927,-0.114026 0.351594,-0.216627 0.535281,-0.30789 0.0109085,0.0930764 0.033014,0.248044 0.0754811,0.443874 -0.0683531,0.00966549 -0.131912,0.0145425 -0.188995,0.0145425 -0.0820979,-2.06131e-006 -0.15089,-0.0100365 -0.201503,-0.0304682 -0.0181766,-0.00728055 -0.0373757,-0.0109806 -0.0564284,-0.0109806 -0.0267599,-1.44292e-005 -0.0532313,0.00720016 -0.0765736,0.0217427 -0.0159236,0.00995201 -0.0319235,0.0199968 -0.0477729,0.0301755z"/>
  <path class="fil11" d="M4.74467 2.62638c-0.0390474,-0.174302 -0.0684293,-0.320165 -0.087045,-0.416226 0.349485,-0.0890074 0.707477,-0.141002 1.06787,-0.155035 0.00472659,0.0489314 0.0104715,0.110678 0.016507,0.182595 -0.223681,0.00972939 -0.446637,0.0337416 -0.667046,0.0717728 -0.0467546,0.00806591 -0.0879891,0.0381054 -0.106968,0.0815187 -0.0315607,0.0718387 -0.110315,0.153799 -0.223318,0.235375z"/>
  <path class="fil11" d="M7.41235 2.4358c-0.192265,-0.0552699 -0.386644,-0.0991882 -0.582184,-0.131839 -0.00930476,-0.0722902 -0.0186899,-0.131837 -0.0264693,-0.176706 0.202019,0.0352546 0.402496,0.0828276 0.600728,0.142964 0.00436792,0.0567087 0.0069796,0.111915 0.00792574,0.165581z"/>
  <path class="fil4" d="M1.4184 10.0238c-0.029955,-0.033385 -0.0563171,-0.0671925 -0.0827204,-0.102315 -0.0265188,-0.0346156 -0.0513967,-0.0707545 -0.0756645,-0.107551 -0.0242122,-0.0367284 -0.0474184,-0.0743906 -0.0686891,-0.113877 -0.0209986,-0.0395586 -0.0414571,-0.0797707 -0.0562614,-0.123984 -0.00607056,-0.0181869 0.00372891,-0.0378869 0.0219241,-0.0439224 0.011564,-0.00392886 0.0237422,-0.00130893 0.0326347,0.00574487l0.00125946 0.00101829c0.032579,0.0262446 0.0658671,0.0519203 0.0995077,0.077227l0.100701 0.0761324 0.100235 0.0764973c0.0330964,0.025451 0.0667329,0.0516358 0.0978051,0.0773074 0.0526211,0.0434091 0.0600583,0.121294 0.0166162,0.173942 -0.0434401,0.0526459 -0.121331,0.0600645 -0.173964,0.0166533 -0.00461527,-0.00385671 -0.0094676,-0.00858124 -0.0133841,-0.0128729z"/>
  <path class="fil4" d="M10.8385 8.50336c0.0224724,-0.033451 0.047338,-0.0681366 0.0717728,-0.101878l0.0743948 -0.101882 0.0749018 -0.10159c0.0250099,-0.0338096 0.049659,-0.0679841 0.0733662,-0.102381l0.00080185 -0.00117082c0.0109126,-0.0157731 0.032577,-0.0196999 0.0483542,-0.00879149 0.0100406,0.00690127 0.0152723,0.0183972 0.0149816,0.0297427 -0.00159545,0.0466062 -0.00981596,0.0908976 -0.0186899,0.13489 -0.00915634,0.0438441 -0.0207224,0.0865379 -0.0334489,0.128714 -0.0128646,0.0420961 -0.0263971,0.0838418 -0.0420322,0.124637 -0.015264,0.0411541 -0.0309774,0.0810095 -0.0501744,0.121512 -0.0291531,0.06166 -0.102824,0.0880633 -0.164563,0.058904 -0.0616579,-0.0292397 -0.0879912,-0.102899 -0.0588298,-0.164563 0.00254572,-0.00546041 0.00596337,-0.0112712 0.00916459,-0.0161442z"/>
  <path class="fil4" d="M6.47341 10.9633l0.0177438 0.121953 -0.0177438 -0.121953c1.60163,-0.232483 2.70338,-0.889563 3.34555,-1.3999 0.696935,-0.553829 1.01908,-1.05958 1.0222,-1.0646 0.0107683,-0.0170161 0.0255231,-0.031268 0.0429763,-0.0413045 0.57862,-0.332904 0.793213,-0.765872 0.860696,-0.944831 -0.15816,-0.0971537 -0.329198,-0.220482 -0.337705,-0.226664 -0.0538785,-0.0389093 -0.0671925,-0.113514 -0.0301075,-0.168634 0.131623,-0.195831 0.196558,-0.456455 0.224411,-0.601381 -0.431148,-0.110243 -0.62407,-0.325415 -0.632723,-0.335233 -0.0122133,-0.0139633 -0.0210893,-0.0304682 -0.0261065,-0.0483563 -0.462197,-1.66534 -1.37751,-2.85442 -2.72054,-3.53412 -1.91271,-0.967969 -4.24501,-0.629452 -5.80351,0.842517 -1.09433,1.03346 -1.63382,2.43367 -1.60343,4.16182 0.000321564,0.0185436 -0.00355576,0.0368707 -0.0112919,0.0537404 -0.00550576,0.0118505 -0.129242,0.272986 -0.511298,0.501247 0.0679181,0.131038 0.204346,0.36243 0.386207,0.512739 0.051203,0.0423208 0.0596502,0.11766 0.0190671,0.170235 -0.00639212,0.00836068 -0.135352,0.175251 -0.259381,0.313342 0.115326,0.152123 0.444231,0.506413 1.09387,0.661085 0.0196464,0.0047204 0.0378518,0.0141055 0.0530128,0.0274876 0.00436998,0.00385259 0.456978,0.397114 1.28264,0.729947 0.760782,0.306653 2.00398,0.623342 3.60546,0.390862zm-1.09507 0.326722c-1.12226,0 -2.01256,-0.24993 -2.61365,-0.493538 -0.762196,-0.308838 -1.21193,-0.66043 -1.31842,-0.748781 -0.925347,-0.230809 -1.25901,-0.821284 -1.27293,-0.846591 -0.02609,-0.0474885 -0.0180694,-0.106531 0.0198154,-0.145364 0.0787215,-0.0807209 0.17523,-0.197212 0.239318,-0.27691 -0.257212,-0.257503 -0.407872,-0.607926 -0.414831,-0.624289 -0.0252016,-0.0593451 -0.000391649,-0.128129 0.056954,-0.157653 0.316974,-0.163404 0.454672,-0.358575 0.49362,-0.422931 -0.0242122,-1.78524 0.5413,-3.2359 1.68112,-4.31235 1.63392,-1.54302 4.07878,-1.89795 6.08399,-0.883164 1.39882,0.707914 2.35353,1.93809 2.83791,3.65643 0.0548329,0.0498796 0.242371,0.198376 0.593455,0.264986 0.0634142,0.0120669 0.106751,0.0709008 0.0994789,0.134966 -0.00203245,0.0176634 -0.0468289,0.396534 -0.220263,0.716495 0.0841386,0.0581743 0.209792,0.142455 0.308255,0.197502 0.0473401,0.026391 0.0717728,0.0807189 0.060283,0.13373 -0.00610354,0.0281348 -0.158162,0.689154 -0.979665,1.17353 -0.0770044,0.114968 -0.408168,0.579929 -1.05107,1.09274 -0.667112,0.532146 -1.81113,1.21716 -3.47281,1.45837 -0.398711,0.0578816 -0.776271,0.0828255 -1.13055,0.0828235z"/>
  <path class="fil2" d="M7.92945 7.83994c-0.148563,-0.0659537 -0.301928,-0.121943 -0.459437,-0.167247 0.0674131,-0.0712657 0.137075,-0.161871 0.208411,-0.275311 6.18393e-006,0 0.195031,0.170378 0.251026,0.442557z"/>
  <path class="fil3" d="M6.21533 9.76473c-0.867822,0 -1.23774,-0.701 -1.23774,-0.701 -0.513462,-0.355964 -0.294654,-0.924687 -0.294654,-0.924687 0.245135,0.141725 0.435728,0.196556 0.584072,0.196556 0.329053,-7.62685e-005 0.449838,-0.270149 0.494123,-0.461616 0.0666834,0.025519 0.143764,0.041086 0.232337,0.041086 0.0656692,0 0.137729,-0.00857918 0.216627,-0.0280689 0.185289,-0.045893 0.308908,-0.127478 0.391008,-0.220991 0.0941009,0.108932 0.244043,0.235898 0.431876,0.235898 0.129588,0 0.277273,-0.0605015 0.437037,-0.22921 0.157509,0.0453035 0.31087,0.101297 0.459435,0.167253 0.0298869,0.14536 0.0201431,0.319816 -0.0801355,0.512811 6.18393e-006,-2.06131e-006 -0.000218499,1.06067 -1.18844,1.35489 -0.161065,0.0398493 -0.309417,0.0570818 -0.445544,0.0570777z"/>
  <path class="fil4" d="M6.02387 7.13494c0,0 -0.30724,0.0727189 -0.517614,0.20623 -0.0906791,0.0575868 -0.11606,0.178305 -0.0582485,0.26884 0.104647,0.163763 0.330941,0.383736 0.762089,0.276985 0.431148,-0.106823 0.528664,-0.406934 0.544806,-0.600581 0.00887394,-0.107042 -0.0698826,-0.20194 -0.176997,-0.21052 -0.248326,-0.020005 -0.554041,0.0590462 -0.554037,0.0590462z"/>
  <path class="fil4" d="M6.29452 7.70047l0.0117082 0.0280689 0.014324 0.0314226c0.0102591,0.0209429 0.0210893,0.0417395 0.0320699,0.0623918 0.0222518,0.0412262 0.0479935,0.0802097 0.0746091,0.117513 0.0541073,0.0743144 0.117513,0.138091 0.187759,0.186596 0.140643,0.096927 0.313198,0.125002 0.495067,0.09017 0.0226229,-0.00450809 0.0453756,-0.00821845 0.0677017,-0.0148332 0.0226909,-0.0056047 0.0450108,-0.0116382 0.0662464,-0.0194155 0.0440688,-0.0128749 0.0841345,-0.0311237 0.12304,-0.0504671 0.0375241,-0.0208749 0.0723541,-0.0445058 0.103041,-0.0716285 0.0300354,-0.0278566 0.0554122,-0.0591947 0.0775919,-0.0933712 0.0894485,-0.136061 0.108132,-0.336249 0.0960612,-0.541898l-0.000216438 -0.00363821c-0.00116052,-0.0201411 0.0141777,-0.03752 0.034393,-0.0386846 0.0132357,-0.000803911 0.0253067,0.00560058 0.0322863,0.0157814 0.0664731,0.0965642 0.103189,0.205793 0.118313,0.324615 0.0136727,0.117948 -0.00319915,0.248116 -0.0626824,0.364755 -0.0291531,0.0582485 -0.0687921,0.111261 -0.113586,0.158237 -0.0456663,0.0460971 -0.0964961,0.0851527 -0.149653,0.118748 -0.107545,0.0652941 -0.220919,0.104789 -0.336907,0.129877 -0.0581702,0.0131594 -0.11882,0.0204338 -0.180124,0.0245049 -0.0618043,0.00159545 -0.124493,0 -0.187031,-0.0114897 -0.124854,-0.0198587 -0.247751,-0.0701753 -0.349629,-0.144129 -0.0511885,-0.0367284 -0.0980256,-0.0780989 -0.140274,-0.122747 -0.0418075,-0.0450211 -0.0784638,-0.0933712 -0.111333,-0.143329 -0.0330119,-0.049962 -0.0609365,-0.102387 -0.0853712,-0.155981 -0.0122854,-0.0268362 -0.0234886,-0.0541012 -0.033451,-0.0820257l-0.014324 -0.0424733c-0.00479255,-0.0151919 -0.00843694,-0.0272629 -0.0135985,-0.046969 -0.0177417,-0.0676357 0.0228331,-0.136859 0.0904606,-0.154528 0.0618847,-0.0162205 0.125076,0.0163606 0.148928,0.0738815l0.00458229 0.0110466z"/>
  <path class="fil4" d="M6.29663 7.70912c0.0046565,0.0198545 0.0069796,0.0322183 0.00988605,0.0479275l0.00713007 0.0442048c0.00422156,0.0293778 0.00705174,0.0586896 0.00872347,0.0881416 0.00335169,0.0588999 0.00312701,0.118241 -0.00276216,0.177796 -0.00573869,0.0595533 -0.0155629,0.119476 -0.0315607,0.178817 -0.0165791,0.0591101 -0.0386867,0.117583 -0.0668298,0.173942 -0.0556265,0.112931 -0.140781,0.214811 -0.242006,0.290655 -0.0498837,0.0393381 -0.104568,0.0700289 -0.160053,0.0973701 -0.0561377,0.0250119 -0.113149,0.0469031 -0.170742,0.0623918 -0.114312,0.0319194 -0.23299,0.0498858 -0.358575,0.0423228 -0.0626803,-0.00494715 -0.125876,-0.0157072 -0.187759,-0.0351969 -0.0615198,-0.0206502 -0.121368,-0.0490839 -0.174306,-0.0869708 -0.10704,-0.0754131 -0.182669,-0.182667 -0.225573,-0.293345 -0.0420961,-0.112139 -0.0606458,-0.225936 -0.0469031,-0.342287 0.00240143,-0.0201452 0.0205801,-0.0344672 0.040649,-0.03214 0.0131697,0.00159752 0.0239256,0.00996025 0.029015,0.0211614l0.00152949 0.00341559c0.0853012,0.187464 0.195247,0.355811 0.337849,0.434421 0.0355659,0.0198525 0.0726447,0.0358503 0.112131,0.0463939 0.0398554,0.00966549 0.0816629,0.0143261 0.124567,0.0153444 0.0434895,-0.00109662 0.0874078,-0.00363615 0.132421,-0.0127987 0.0224023,-0.00305692 0.0449386,-0.00814424 0.0675553,-0.0137428 0.0229115,-0.00458642 0.0447201,-0.0119267 0.0668277,-0.0184714 0.177147,-0.0540331 0.316689,-0.159399 0.395879,-0.3108 0.0394865,-0.0756274 0.0658094,-0.161652 0.0789729,-0.252624 0.00611385,-0.0453756 0.01069,-0.0919159 0.0111249,-0.138747 0.000150476,-0.0233443 0,-0.0468289 -0.000727643,-0.070099l-0.00196031 -0.0344734 -0.00276422 -0.030326 -0.00108837 -0.0119185c-0.0063241,-0.069594 0.0449366,-0.131258 0.114528,-0.137656 0.0637069,-0.00581908 0.120712,0.0366501 0.134822,0.0972918z"/>
  <path class="fil4" d="M7.51568 8.19335c0,0 0.0439946,0.358291 -0.0994789,0.717301 -0.111694,0.279893 -0.337195,0.560516 -0.786378,0.671701 -0.449108,0.111183 -0.779544,-0.0317772 -1.0089,-0.227245 -0.294363,-0.250519 -0.422641,-0.587929 -0.422641,-0.587929 2.06131e-006,0 1.05071,0.125367 0.982427,-0.998932 0.464166,1.02627 1.33496,0.425112 1.33497,0.425104z"/>
  <path class="fil12" d="M7.4162 8.91065c-0.111694,0.279899 -0.337195,0.560522 -0.786378,0.671707 -0.449108,0.111183 -0.779544,-0.0317772 -1.0089,-0.227245 6.18393e-006,-6.18393e-006 0.61796,-1.09194 1.79527,-0.444462z"/>
  <path class="fil4" d="M5.40176 8.89334c0.154675,0.266655 0.529025,0.731477 1.1976,0.565824 0.668726,-0.165585 0.782814,-0.751107 0.795177,-1.05921 -0.163324,0.0693714 -0.411442,0.136201 -0.670464,0.0642098 -0.16965,-0.0471216 -0.318071,-0.145582 -0.443874,-0.294003 -0.0420301,0.190007 -0.127329,0.34636 -0.255388,0.467145 -0.195536,0.184483 -0.4462,0.241134 -0.62305,0.25604zm0.921855 0.854947c-0.876329,0.000146353 -1.23985,-0.925627 -1.24378,-0.936171 -0.0157793,-0.041455 -0.00872553,-0.0881355 0.0185436,-0.123186 0.0273433,-0.0349104 0.0710451,-0.0531571 0.11504,-0.0478492 0.00364234,0.000364852 0.394788,0.0417415 0.638468,-0.18943 0.152636,-0.144859 0.220628,-0.372174 0.202157,-0.675774 -0.0037083,-0.0610828 0.0367223,-0.11613 0.0961333,-0.130819 0.0594152,-0.0147631 0.120859,0.0150517 0.146091,0.0708266 0.125297,0.277125 0.291601,0.446492 0.494051,0.50343 0.323745,0.0908976 0.650249,-0.128348 0.653446,-0.130603 0.03658,-0.0248738 0.0836274,-0.0290872 0.123986,-0.0108342 0.0402883,0.0182508 0.0683572,0.0560656 0.0736651,0.10006 0.00153155,0.0124338 0.139691,1.24996 -0.981046,1.52753 -0.119766,0.0295942 -0.231972,0.0428299 -0.336754,0.0428237z"/>
  <path class="fil4" d="M3.18726 7.09596c0.0939525,0.506705 0.48292,0.859391 0.868764,0.787837 0.385846,-0.0716305 0.622398,-0.540373 0.528372,-1.04707 -0.0940205,-0.506635 -0.482996,-0.859387 -0.868766,-0.787759 -0.385844,0.0715543 -0.622398,0.540298 -0.52837,1.047z"/>
  <path class="fil1" d="M3.82137 6.80356c0.0274876,0.147984 0.14107,0.251026 0.253784,0.230084 0.112717,-0.0208749 0.181795,-0.157797 0.15431,-0.305781 -0.0274092,-0.147981 -0.141074,-0.251024 -0.253716,-0.230154 -0.112706,0.0209367 -0.181795,0.157872 -0.154378,0.305851z"/>
  <path class="fil4" d="M8.34388 5.59614c-0.103913,0.0530128 -0.208415,0.11228 -0.303676,0.175908 -0.0958427,0.0640614 -0.184706,0.134092 -0.265423,0.209792 -0.0415169,0.0368645 -0.0775898,0.0782453 -0.11533,0.11766l-0.0512648 0.063408c-0.00821226,0.0108322 -0.0177458,0.0206543 -0.0254531,0.0317792l-0.0229032 0.0334468c-0.0650137,0.0868245 -0.111045,0.185291 -0.155911,0.284479l-0.23393 -0.180272c0.0093027,-0.00625814 0.0151919,-0.00974175 0.0216644,-0.0136686 0.00655085,-0.00407521 0.0127987,-0.0077093 0.0189063,-0.0109806 0.0123679,-0.00683943 0.0248697,-0.0136706 0.0370871,-0.0194876 0.0245049,-0.0126544 0.0493024,-0.0234165 0.0740258,-0.0343249 0.0495251,-0.0212377 0.100425,-0.037957 0.151692,-0.0526479 0.102606,-0.028947 0.208848,-0.044211 0.314797,-0.0450108 0.105733,-0.000436998 0.211612,0.0103251 0.311672,0.040212 0.101006,0.0247234 0.194738,0.0706102 0.281274,0.121731 0.0253809,0.0149053 0.0337416,0.0475586 0.0188342,0.0728632 -0.0111249,0.018828 -0.0319957,0.0282874 -0.0524294,0.0258159l-0.0063241 -0.000876057c-0.0469731,-0.00581702 -0.0914088,-0.0164307 -0.136712,-0.021013 -0.0455158,-0.00371036 -0.0895907,-0.0100345 -0.134239,-0.00959746 -0.0886364,-0.00291469 -0.175832,0.00458023 -0.26055,0.0198525 -0.084858,0.0141035 -0.167471,0.0381755 -0.246588,0.0693714 -0.0198525,0.00741247 -0.0390515,0.0165812 -0.0586113,0.0246533l-0.0568654 0.0274113c-0.0183993,0.00981596 -0.037015,0.0193475 -0.0543217,0.0299632 -0.00901411,0.00508319 -0.0171625,0.0104715 -0.025451,0.0157793 -0.00421126,0.00261374 -0.00829059,0.00509144 -0.0117804,0.00756295l-0.00843282 0.00581702 -0.00334757 0.00224889c-0.0701732,0.0480718 -0.166016,0.0301116 -0.214084,-0.0401337 -0.0295159,-0.0431288 -0.0337416,-0.0969352 -0.0165791,-0.142383 0.0487953,-0.126463 0.105731,-0.252698 0.18943,-0.361412 0.0373798,-0.057525 0.086608,-0.105514 0.131547,-0.156416 0.0502506,-0.0456725 0.0987533,-0.0932248 0.154384,-0.13133 0.10806,-0.0800696 0.226153,-0.143908 0.349701,-0.188777 0.124353,-0.0442893 0.250227,-0.0731559 0.384972,-0.0751904 0.0296025,-0.00044112 0.0538847,0.0231959 0.0543197,0.0527201 0.000364852,0.0210893 -0.0115619,0.0394865 -0.0290872,0.0485047l-0.00501311 0.0025416z"/>
  <path class="fil13" d="M5.80978 7.52449c-0.0479976,0 -0.0823947,-0.0120649 -0.0898113,-0.0355535 -0.0133078,-0.0416735 0.063847,-0.103478 0.172342,-0.138019 0.0475606,-0.0152001 0.0932269,-0.0225425 0.130675,-0.0225425 0.0479275,-4.12262e-006 0.0823184,0.0121452 0.0898092,0.0355597 0.013314,0.0417374 -0.0639212,0.103552 -0.172344,0.138019 -0.0476266,0.0151898 -0.093297,0.0225425 -0.130671,0.0225363z"/>
 </g>
</svg>
